<svg width="334" height="319" viewBox="0 0 334 319" fill="none" xmlns="http://www.w3.org/2000/svg">
<path d="M215.977 260.987C201.237 250.119 195.502 230.353 195.743 212.008C195.863 202.761 197.538 192.872 203.997 186.252C207.225 183.17 211.021 180.744 215.173 179.109C228.305 173.401 245.778 172.476 254.891 183.518C257.406 186.87 259.391 190.59 260.773 194.547C266.249 208.09 271.163 221.848 275.513 235.821C279.801 249.53 284.451 271.199 265.061 272.418C249.276 273.423 228.975 270.529 215.977 260.987Z" fill="white"/>
<path d="M259.138 273.302C244.881 273.302 227.434 270.261 215.575 261.537C202.255 251.754 194.778 233.704 195.046 211.954C195.207 199.974 197.967 191.398 203.502 185.729C206.802 182.59 210.673 180.111 214.905 178.426C228.305 172.597 246.1 171.726 255.427 183.036C257.989 186.439 260.009 190.218 261.416 194.239C266.884 207.76 271.855 221.67 276.156 235.58C280.913 250.803 281.222 261.135 277.081 267.152C274.615 270.73 270.582 272.726 265.088 273.075C263.212 273.235 261.215 273.302 259.138 273.302ZM234.255 175.639C227.79 175.739 221.411 177.133 215.495 179.739C211.419 181.37 207.693 183.768 204.52 186.801C199.24 192.162 196.614 200.47 196.48 212.088C196.212 233.328 203.488 250.95 216.446 260.491C229.739 270.261 250.281 272.74 265.101 271.802C270.14 271.48 273.825 269.684 276.036 266.441C279.922 260.8 279.56 250.856 274.937 236.075C270.595 222.206 265.637 208.323 260.197 194.842C258.843 190.954 256.899 187.298 254.435 184.001C249.464 178.037 242.04 175.639 234.255 175.639Z" fill="#231F20"/>
<path d="M61.1399 191.692L18.4341 174.071C33.6163 141.614 50.7415 122.344 62.6541 114.8C77.7291 102.257 115.115 101.399 149.406 100.059C160.377 99.4174 171.382 100.493 182.021 103.248C222.02 114.304 259.205 172.221 259.205 172.221L210.657 178.761C210.657 178.761 216.915 237.349 222.409 308.747C222.409 308.747 159.63 322.871 61.6089 317.377C61.542 317.431 62.1315 201.85 61.1399 191.692Z" fill="#2730FD"/>
<path d="M153.855 94.2562L159.215 119.985C159.215 119.985 153.506 137.071 136.207 135.276C131.096 134.694 126.179 132.981 121.812 130.262C117.445 127.543 113.739 123.886 110.961 119.557L104.824 72.2523C104.824 72.2523 116.361 63.9573 109.085 37.4106C123.581 41.4689 138.902 41.5476 153.439 37.6385C153.439 37.6385 164.963 65.8736 164.682 79.1805C164.4 92.4873 153.855 94.2562 153.855 94.2562Z" fill="white"/>
<path d="M138.699 136.093C137.84 136.094 136.981 136.049 136.126 135.959C118.706 134.137 110.439 120.039 110.345 119.878C110.306 119.798 110.279 119.712 110.264 119.624L104.114 72.3193C104.1 72.1949 104.118 72.069 104.168 71.9539C104.217 71.8388 104.295 71.7385 104.395 71.6627C106.586 69.7201 108.199 67.2118 109.058 64.413C110.8 59.6021 112.087 51.0123 108.402 37.6116C108.371 37.4902 108.373 37.3626 108.408 37.2423C108.444 37.122 108.511 37.0135 108.603 36.9282C108.693 36.8406 108.807 36.7803 108.93 36.7543C109.053 36.7282 109.181 36.7374 109.3 36.7808C123.668 40.7496 138.834 40.8189 153.238 36.9818C153.4 36.9335 153.574 36.948 153.726 37.0225C153.877 37.0971 153.995 37.2261 154.056 37.3838C154.538 38.5497 165.633 65.9138 165.352 79.1537C165.111 90.7988 157.097 94.015 154.632 94.7252L159.858 119.798C159.892 119.916 159.892 120.041 159.858 120.16C159.804 120.374 154.364 136.093 138.699 136.093ZM111.618 119.329C114.365 123.513 117.997 127.043 122.257 129.671C126.517 132.299 131.302 133.961 136.274 134.539C152.086 136.173 157.821 121.754 158.491 119.892L153.131 94.35C153.114 94.2593 153.114 94.1661 153.133 94.0757C153.152 93.9853 153.189 93.8996 153.241 93.8236C153.294 93.7475 153.361 93.6826 153.438 93.6326C153.516 93.5827 153.603 93.5487 153.694 93.5326C154.096 93.4656 163.677 91.6163 163.931 79.1269C164.186 67.1869 154.551 42.5029 152.97 38.4693C138.882 42.0782 124.111 42.0782 110.023 38.4693C116.107 62.0008 107.343 70.9257 105.494 72.5338L111.618 119.329Z" fill="#231F20"/>
<path d="M114.512 70.1083C113.641 67.8795 112.064 65.9969 110.023 64.7481C108.072 63.6711 105.951 62.9369 103.752 62.5772C102.574 62.2491 101.337 62.1941 100.134 62.4164C99.3071 62.6589 98.5371 63.0644 97.8694 63.609C96.1782 64.7319 94.9465 66.4249 94.3988 68.3797C94.1485 69.9978 94.2909 71.6524 94.8142 73.2039C95.2578 74.9228 95.9245 76.5762 96.7974 78.1219C97.705 79.6432 98.9053 80.9693 100.329 82.0237C101.752 83.0781 103.37 83.8398 105.09 84.2648C106.81 84.6897 108.597 84.7695 110.347 84.4995C112.098 84.2294 113.778 83.6149 115.289 82.6916" fill="white"/>
<path d="M108.268 85.3582C105.833 85.3595 103.441 84.7261 101.326 83.5206C99.2111 82.3151 97.4471 80.579 96.2078 78.4837C95.2994 76.8873 94.6141 75.1739 94.171 73.3914C93.6064 71.7378 93.4546 69.9712 93.7288 68.2456C94.3122 66.1242 95.6392 64.2835 97.4674 63.0595C98.2091 62.4565 99.0598 62.0015 99.9732 61.7194C101.277 61.4704 102.62 61.5254 103.899 61.8803C106.181 62.2437 108.381 63.0058 110.398 64.1316C112.562 65.4585 114.236 67.4525 115.169 69.8134C115.205 69.8975 115.224 69.9883 115.224 70.08C115.224 70.1717 115.206 70.2625 115.169 70.3466C115.133 70.4308 115.079 70.5066 115.013 70.5693C114.946 70.632 114.867 70.6804 114.78 70.7113C114.609 70.7774 114.42 70.7738 114.252 70.701C114.084 70.6283 113.951 70.4924 113.882 70.3227C113.068 68.2357 111.589 66.4746 109.675 65.3108C107.79 64.2765 105.741 63.5739 103.618 63.2337C102.547 62.9257 101.419 62.8662 100.322 63.0595C99.5788 63.2796 98.8867 63.6439 98.2848 64.1316C96.7441 65.1735 95.6123 66.7174 95.0822 68.5002C94.8595 70.0083 95.002 71.5478 95.4976 72.9894C95.9159 74.6532 96.5559 76.2533 97.4004 77.7466C98.2598 79.1912 99.3977 80.4506 100.748 81.4517C102.098 82.4529 103.634 83.1758 105.266 83.5785C106.898 83.9812 108.593 84.0556 110.254 83.7976C111.915 83.5395 113.508 82.954 114.941 82.075C115.018 82.0264 115.104 81.9937 115.194 81.9788C115.284 81.9639 115.376 81.9672 115.465 81.9884C115.553 82.0097 115.637 82.0484 115.71 82.1024C115.784 82.1564 115.846 82.2246 115.892 82.3028C115.941 82.3789 115.973 82.4639 115.988 82.5529C116.003 82.6418 115.999 82.7327 115.978 82.8203C115.957 82.9079 115.918 82.9903 115.864 83.0625C115.81 83.1348 115.742 83.1955 115.665 83.2409C113.442 84.617 110.882 85.3499 108.268 85.3582Z" fill="#231F20"/>
<path d="M155.905 107.121C152.859 107.885 149.686 107.988 146.597 107.421C143.509 106.855 140.578 105.633 138.002 103.838C129.668 97.7136 129.748 93.4924 129.748 93.4924C129.748 93.4924 142.532 98.4239 153.225 94.7521L155.905 107.121Z" fill="#231F20"/>
<path d="M150.438 108.461C145.835 108.51 141.339 107.077 137.614 104.374C129.091 98.1156 129.078 93.6532 129.091 93.479C129.091 93.372 129.118 93.2666 129.169 93.1728C129.221 93.079 129.296 92.9999 129.386 92.943C129.479 92.8937 129.583 92.8679 129.688 92.8679C129.793 92.8679 129.896 92.8937 129.989 92.943C130.123 92.943 142.679 97.7404 152.997 94.1892C153.082 94.1467 153.176 94.1246 153.272 94.1246C153.367 94.1246 153.461 94.1467 153.546 94.1892C153.628 94.2326 153.699 94.2936 153.755 94.3677C153.811 94.4418 153.849 94.5273 153.868 94.618L156.548 107C156.585 107.163 156.559 107.335 156.475 107.479C156.39 107.624 156.253 107.73 156.092 107.777C154.245 108.25 152.344 108.48 150.438 108.461ZM130.646 94.5108C131.168 96.0519 132.857 99.2279 138.404 103.302C140.813 104.973 143.539 106.13 146.414 106.702C149.288 107.273 152.25 107.247 155.114 106.625L152.729 95.6767C143.845 98.3568 133.969 95.6767 130.646 94.5108Z" fill="#231F20"/>
<path d="M138.418 55.7429C138.418 55.7429 149.366 67.2943 147.677 69.9074C145.989 72.5205 139.919 72.0247 139.919 72.0247" fill="white"/>
<path d="M141.111 72.7349C140.696 72.7584 140.28 72.7584 139.865 72.7349C139.777 72.727 139.691 72.7018 139.613 72.6608C139.535 72.6198 139.465 72.5638 139.409 72.496C139.294 72.359 139.239 72.1823 139.255 72.0045C139.271 71.8268 139.357 71.6628 139.494 71.5484C139.631 71.4341 139.808 71.3788 139.986 71.3948C141.553 71.5154 145.908 71.3948 147.114 69.5857C147.985 68.2457 143.014 61.5453 137.922 56.1851C137.86 56.1239 137.81 56.051 137.776 55.9704C137.742 55.8899 137.725 55.8034 137.725 55.716C137.725 55.6287 137.742 55.5422 137.776 55.4617C137.81 55.3811 137.86 55.3082 137.922 55.247C137.984 55.1842 138.058 55.1344 138.14 55.1004C138.222 55.0663 138.309 55.0488 138.398 55.0488C138.486 55.0488 138.574 55.0663 138.655 55.1004C138.737 55.1344 138.811 55.1842 138.873 55.247C141.553 58.0344 150.049 67.388 148.253 70.229C146.9 72.4267 143.094 72.7349 141.111 72.7349Z" fill="#231F20"/>
<path d="M124.706 60.7655C125.826 60.3152 126.218 58.6699 125.582 57.0908C124.947 55.5116 123.524 54.5965 122.405 55.0469C121.286 55.4972 120.894 57.1425 121.53 58.7216C122.165 60.3008 123.587 61.2159 124.706 60.7655Z" fill="#231F20"/>
<path d="M147.445 57.0604C148.564 56.6101 148.956 54.9649 148.321 53.3857C147.685 51.8065 146.263 50.8915 145.144 51.3418C144.025 51.7921 143.633 53.4374 144.268 55.0166C144.904 56.5957 146.326 57.5108 147.445 57.0604Z" fill="#231F20"/>
<path d="M140.012 87.2747C135.992 87.2747 132.294 84.8893 129.118 80.2661C127.308 77.5699 125.875 74.6394 124.857 71.5557C124.806 71.3851 124.824 71.2014 124.907 71.0438C124.989 70.8861 125.13 70.7669 125.299 70.7115C125.47 70.6607 125.653 70.6785 125.811 70.7611C125.969 70.8437 126.088 70.9845 126.143 71.1537C126.143 71.3279 131.584 88.1725 142.223 85.613C152.863 83.0534 152.715 70.7115 152.702 70.1888C152.702 70.0111 152.773 69.8407 152.898 69.715C153.024 69.5894 153.194 69.5188 153.372 69.5188C153.55 69.5188 153.72 69.5894 153.846 69.715C153.971 69.8407 154.042 70.0111 154.042 70.1888C154.042 70.3362 154.31 84.1121 142.545 86.953C141.716 87.1593 140.866 87.2672 140.012 87.2747Z" fill="#231F20"/>
<path d="M326.326 53.3174H189.351C185.495 53.3174 182.37 56.4432 182.37 60.2991V241.65C182.37 245.506 185.495 248.632 189.351 248.632H326.326C330.182 248.632 333.307 245.506 333.307 241.65V60.2991C333.307 56.4432 330.182 53.3174 326.326 53.3174Z" fill="#231F20"/>
<path d="M324.061 65.2842H191.616V236.665H324.061V65.2842Z" fill="white"/>
<path d="M324.061 237.282H191.616C191.455 237.278 191.301 237.212 191.188 237.096C191.076 236.981 191.013 236.826 191.013 236.665V65.2842C191.013 65.1242 191.076 64.9709 191.189 64.8578C191.302 64.7447 191.456 64.6812 191.616 64.6812H324.061C324.222 64.6811 324.377 64.7442 324.492 64.8569C324.608 64.9697 324.674 65.123 324.678 65.2842V236.665C324.674 236.828 324.608 236.982 324.493 237.097C324.379 237.212 324.224 237.278 324.061 237.282ZM192.232 236.062H323.445V65.8738H192.232V236.062Z" fill="#231F20"/>
<path d="M292.451 46.4159H273.396C272.697 42.8004 270.762 39.541 267.921 37.1972C265.081 34.8535 261.514 33.5715 257.832 33.5715C254.15 33.5715 250.582 34.8535 247.742 37.1972C244.902 39.541 242.967 42.8004 242.268 46.4159H223.28C222.07 46.4159 220.91 46.8955 220.054 47.7495C219.197 48.6036 218.714 49.7625 218.711 50.9721V66.9055C218.711 68.1174 219.192 69.2797 220.049 70.1367C220.906 70.9936 222.068 71.4751 223.28 71.4751H292.504C293.7 71.4505 294.838 70.9583 295.675 70.1039C296.512 69.2496 296.98 68.1013 296.98 66.9055V50.9721C296.976 49.7694 296.499 48.6166 295.651 47.7636C294.803 46.9107 293.653 46.4264 292.451 46.4159ZM257.839 48.493C257.043 48.493 256.266 48.2572 255.605 47.8154C254.944 47.3737 254.429 46.7458 254.125 46.0112C253.82 45.2766 253.741 44.4683 253.896 43.6885C254.051 42.9086 254.434 42.1923 254.996 41.6301C255.558 41.0678 256.275 40.6849 257.054 40.5298C257.834 40.3747 258.642 40.4543 259.377 40.7586C260.111 41.0629 260.739 41.5782 261.181 42.2393C261.623 42.9004 261.859 43.6777 261.859 44.4728C261.859 45.0007 261.755 45.5235 261.553 46.0112C261.351 46.499 261.054 46.9422 260.681 47.3155C260.308 47.6888 259.865 47.9849 259.377 48.1869C258.889 48.389 258.366 48.493 257.839 48.493Z" fill="#2730FD"/>
<path d="M242.643 120.24H210.657C210.495 120.237 210.34 120.171 210.225 120.056C210.11 119.941 210.044 119.786 210.041 119.624V85.4387C210.044 85.2763 210.11 85.1215 210.225 85.0066C210.34 84.8917 210.495 84.8257 210.657 84.8223H242.643C242.806 84.8223 242.963 84.8872 243.079 85.0028C243.194 85.1184 243.259 85.2752 243.259 85.4387V119.624C243.259 119.787 243.194 119.944 243.079 120.06C242.963 120.175 242.806 120.24 242.643 120.24ZM211.22 118.994H242.04V86.0551H211.22V118.994Z" fill="#9A9EE8"/>
<path d="M250.147 93.8008C249.978 94.0804 249.785 94.3449 249.571 94.5914L228.895 115.228C228.184 115.939 227.635 115.952 226.938 115.228C223.052 111.235 219.179 107.215 215.32 103.168C215.175 103.057 215.058 102.914 214.979 102.748C214.901 102.583 214.863 102.402 214.87 102.219C214.877 102.036 214.927 101.858 215.017 101.699C215.107 101.54 215.234 101.405 215.387 101.305L218.308 98.625C218.411 98.4916 218.543 98.3835 218.694 98.3091C218.845 98.2347 219.011 98.196 219.18 98.196C219.348 98.196 219.514 98.2347 219.665 98.3091C219.816 98.3835 219.948 98.4916 220.05 98.625L226.925 105.634C227.648 106.357 228.184 106.357 228.895 105.634L244.975 89.6466C245.08 89.489 245.222 89.3599 245.389 89.2706C245.557 89.1812 245.743 89.1345 245.933 89.1345C246.122 89.1345 246.309 89.1812 246.476 89.2706C246.643 89.3599 246.785 89.489 246.891 89.6466C247.788 90.5578 248.7 91.4691 249.571 92.3267C249.773 92.57 249.961 92.8251 250.134 93.0905L250.147 93.8008Z" fill="#2730FD"/>
<path d="M307.432 97.7807H261.497C261.347 97.7587 261.21 97.6836 261.112 97.5692C261.013 97.4548 260.958 97.3087 260.958 97.1576C260.958 97.0064 261.013 96.8603 261.112 96.7459C261.21 96.6315 261.347 96.5564 261.497 96.5344H307.432C307.581 96.5564 307.718 96.6315 307.817 96.7459C307.916 96.8603 307.97 97.0064 307.97 97.1576C307.97 97.3087 307.916 97.4548 307.817 97.5692C307.718 97.6836 307.581 97.7587 307.432 97.7807Z" fill="#9A9EE8"/>
<path d="M295.211 108.515H261.497C261.415 108.516 261.334 108.502 261.259 108.471C261.183 108.441 261.114 108.396 261.057 108.338C260.999 108.281 260.954 108.212 260.923 108.136C260.893 108.061 260.878 107.98 260.88 107.898C260.88 107.735 260.945 107.578 261.061 107.462C261.176 107.347 261.333 107.282 261.497 107.282H295.211C295.373 107.285 295.528 107.351 295.643 107.466C295.758 107.581 295.824 107.736 295.828 107.898C295.828 108.062 295.763 108.218 295.647 108.334C295.531 108.45 295.375 108.515 295.211 108.515Z" fill="#9A9EE8"/>
<path d="M242.643 166.915H210.657C210.495 166.911 210.34 166.845 210.225 166.73C210.11 166.615 210.044 166.461 210.041 166.298V132.127C210.041 132.046 210.057 131.965 210.088 131.891C210.119 131.816 210.164 131.748 210.221 131.691C210.278 131.633 210.346 131.588 210.421 131.557C210.496 131.526 210.576 131.51 210.657 131.51H242.643C242.724 131.508 242.805 131.523 242.881 131.553C242.957 131.584 243.025 131.629 243.083 131.687C243.14 131.744 243.186 131.813 243.216 131.889C243.246 131.964 243.261 132.045 243.259 132.127V166.298C243.259 166.462 243.194 166.619 243.079 166.734C242.963 166.85 242.806 166.915 242.643 166.915ZM211.22 165.682H242.04V132.743H211.22V165.682Z" fill="#9A9EE8"/>
<path d="M250.147 140.475C249.978 140.759 249.785 141.028 249.571 141.279L228.895 161.916C228.791 162.082 228.647 162.219 228.476 162.315C228.305 162.41 228.112 162.459 227.916 162.459C227.721 162.459 227.528 162.41 227.357 162.315C227.186 162.219 227.042 162.082 226.938 161.916C223.052 157.914 219.179 153.894 215.32 149.856C215.175 149.745 215.058 149.601 214.979 149.436C214.901 149.271 214.863 149.09 214.87 148.907C214.877 148.724 214.927 148.546 215.017 148.387C215.107 148.228 215.234 148.093 215.387 147.993L218.308 145.313C218.413 145.182 218.545 145.076 218.696 145.003C218.847 144.93 219.012 144.892 219.18 144.892C219.347 144.892 219.512 144.93 219.663 145.003C219.814 145.076 219.946 145.182 220.05 145.313L226.925 152.321C227.648 153.045 228.184 153.058 228.895 152.321L244.975 136.334C245.078 136.174 245.219 136.042 245.387 135.951C245.554 135.859 245.742 135.811 245.933 135.811C246.123 135.811 246.311 135.859 246.478 135.951C246.646 136.042 246.788 136.174 246.891 136.334C247.788 137.246 248.7 138.143 249.571 139.015C249.773 139.258 249.961 139.513 250.134 139.778L250.147 140.475Z" fill="#2730FD"/>
<path d="M307.432 144.455H261.497C261.333 144.455 261.177 144.39 261.061 144.274C260.945 144.159 260.88 144.002 260.88 143.839C260.88 143.675 260.945 143.518 261.061 143.403C261.177 143.287 261.333 143.222 261.497 143.222H307.432C307.595 143.222 307.752 143.287 307.868 143.403C307.983 143.518 308.048 143.675 308.048 143.839C308.048 144.002 307.983 144.159 307.868 144.274C307.752 144.39 307.595 144.455 307.432 144.455Z" fill="#9A9EE8"/>
<path d="M295.211 155.202H261.497C261.333 155.202 261.176 155.138 261.061 155.022C260.945 154.906 260.88 154.75 260.88 154.586C260.878 154.505 260.893 154.424 260.923 154.348C260.954 154.272 260.999 154.204 261.057 154.146C261.114 154.088 261.183 154.043 261.259 154.013C261.334 153.982 261.415 153.968 261.497 153.97H295.211C295.375 153.97 295.531 154.035 295.647 154.15C295.763 154.266 295.828 154.423 295.828 154.586C295.824 154.748 295.758 154.903 295.643 155.018C295.528 155.133 295.373 155.199 295.211 155.202Z" fill="#9A9EE8"/>
<path d="M242.643 213.602H210.657C210.495 213.599 210.34 213.533 210.225 213.418C210.11 213.303 210.044 213.148 210.041 212.986V178.761C210.044 178.598 210.11 178.443 210.225 178.329C210.34 178.214 210.495 178.148 210.657 178.144H242.643C242.806 178.144 242.963 178.209 243.079 178.325C243.194 178.44 243.259 178.597 243.259 178.761V212.946C243.265 213.03 243.253 213.115 243.224 213.194C243.196 213.274 243.151 213.346 243.094 213.408C243.036 213.469 242.966 213.519 242.888 213.552C242.811 213.585 242.727 213.603 242.643 213.602ZM211.22 212.37H242.04V179.417H211.22V212.37Z" fill="#9A9EE8"/>
<path d="M307.432 191.143H261.497C261.347 191.121 261.21 191.046 261.112 190.932C261.013 190.817 260.958 190.671 260.958 190.52C260.958 190.369 261.013 190.223 261.112 190.108C261.21 189.994 261.347 189.919 261.497 189.897H307.432C307.581 189.919 307.718 189.994 307.817 190.108C307.916 190.223 307.97 190.369 307.97 190.52C307.97 190.671 307.916 190.817 307.817 190.932C307.718 191.046 307.581 191.121 307.432 191.143Z" fill="#9A9EE8"/>
<path d="M295.211 201.877H261.497C261.415 201.879 261.334 201.864 261.259 201.834C261.183 201.803 261.114 201.758 261.057 201.7C260.999 201.643 260.954 201.574 260.923 201.499C260.893 201.423 260.878 201.342 260.88 201.26C260.88 201.097 260.945 200.94 261.061 200.825C261.176 200.709 261.333 200.644 261.497 200.644H295.211C295.373 200.647 295.528 200.714 295.643 200.828C295.758 200.943 295.824 201.098 295.828 201.26C295.828 201.424 295.763 201.581 295.647 201.696C295.531 201.812 295.375 201.877 295.211 201.877Z" fill="#9A9EE8"/>
<path d="M76.4561 181.28L55.7799 230.327L101.822 190.567L131.128 200.497C131.128 200.497 124.589 244.183 84.5631 281.075C44.5373 317.967 3.21172 310.891 0.839924 276.358C-1.53188 241.824 22.8159 174.861 22.8159 174.861" fill="white"/>
<path d="M32.5711 306.415C27.8435 306.46 23.1506 305.605 18.7423 303.896C7.67394 299.487 1.06774 289.718 0.169941 276.411C-2.17506 242.133 21.9315 175.303 22.1727 174.566C22.2349 174.389 22.3652 174.243 22.5348 174.161C22.7044 174.08 22.8995 174.069 23.0772 174.131C23.2549 174.193 23.4007 174.323 23.4823 174.493C23.564 174.663 23.5749 174.858 23.5127 175.035C23.2715 175.705 -0.727862 242.267 1.59034 276.251C2.44794 288.995 8.74594 298.335 19.2917 302.543C36.9127 309.551 61.7563 301.109 84.1343 280.499C121.051 246.474 129.426 206.138 130.378 200.899L102.023 191.277L56.2757 230.782C56.1564 230.877 56.0093 230.93 55.857 230.933C55.7048 230.936 55.5557 230.889 55.4325 230.799C55.3094 230.71 55.2191 230.582 55.1753 230.436C55.1316 230.29 55.1369 230.134 55.1903 229.992L75.8799 180.999C75.916 180.911 75.9691 180.831 76.0361 180.763C76.1031 180.696 76.1827 180.642 76.2704 180.605C76.3581 180.569 76.4522 180.55 76.5473 180.549C76.6424 180.549 76.7367 180.567 76.8246 180.603C76.9126 180.64 76.9926 180.693 77.0601 180.76C77.1276 180.827 77.1812 180.906 77.2179 180.994C77.2546 181.082 77.2737 181.176 77.2741 181.271C77.2744 181.366 77.256 181.46 77.2199 181.548L57.7095 227.874L101.34 190.044C101.432 189.964 101.544 189.909 101.664 189.886C101.784 189.862 101.908 189.871 102.023 189.91L131.316 199.853C131.469 199.905 131.599 200.008 131.685 200.145C131.77 200.282 131.806 200.444 131.785 200.604C131.718 201.046 124.75 244.96 85.0053 281.584C67.6121 297.638 48.6377 306.415 32.5711 306.415Z" fill="#231F20"/>
<path d="M113.601 119.048L165.941 160.643L167.362 163.109L174.316 175.21L160.957 171.176L158.223 170.345L105.883 128.763L113.601 119.048Z" fill="#231F20"/>
<path d="M174.316 175.88H174.115L158.035 171.015C157.953 170.989 157.876 170.948 157.808 170.895L105.467 129.353C105.331 129.237 105.245 129.074 105.226 128.897C105.214 128.812 105.22 128.725 105.243 128.642C105.266 128.559 105.306 128.482 105.36 128.415L113.078 118.699C113.191 118.564 113.351 118.478 113.526 118.458C113.701 118.438 113.876 118.486 114.016 118.592L166.357 160.134C166.424 160.184 166.479 160.248 166.518 160.322L174.893 174.888C174.967 174.999 175.007 175.13 175.007 175.263C175.007 175.397 174.967 175.528 174.893 175.639C174.824 175.723 174.736 175.79 174.635 175.832C174.534 175.874 174.425 175.891 174.316 175.88ZM158.545 169.742L172.896 174.084L165.432 161.085L113.708 119.986L106.821 128.656L158.545 169.742Z" fill="#231F20"/>
<path d="M167.362 163.109L174.316 175.21L160.957 171.176L167.362 163.109Z" fill="#2730FD"/>
<path d="M174.316 175.906C174.25 175.919 174.182 175.919 174.115 175.906L160.715 171.886C160.608 171.853 160.511 171.794 160.432 171.714C160.352 171.635 160.293 171.538 160.26 171.431C160.227 171.322 160.22 171.208 160.238 171.097C160.257 170.985 160.301 170.879 160.367 170.787L166.772 162.747C166.842 162.657 166.935 162.586 167.04 162.541C167.146 162.496 167.261 162.48 167.375 162.492C167.487 162.501 167.594 162.536 167.69 162.594C167.785 162.652 167.866 162.732 167.925 162.827L174.866 174.888C174.945 175.002 174.987 175.138 174.987 175.277C174.987 175.415 174.945 175.551 174.866 175.665C174.799 175.745 174.714 175.808 174.619 175.849C174.524 175.891 174.42 175.911 174.316 175.906ZM162.136 170.801L172.856 174.044L167.281 164.342L162.136 170.801Z" fill="#231F20"/>
<path d="M172.255 173.618L172.246 173.628C172.025 173.907 172.072 174.311 172.35 174.532L174.459 176.208C174.737 176.429 175.141 176.383 175.362 176.104L175.371 176.094C175.592 175.816 175.545 175.411 175.267 175.19L173.159 173.515C172.88 173.294 172.476 173.34 172.255 173.618Z" fill="white"/>
<path d="M174.866 177.045C174.564 177.044 174.271 176.94 174.035 176.751L171.931 175.076C171.656 174.857 171.478 174.54 171.435 174.191C171.415 174.015 171.429 173.837 171.477 173.667C171.525 173.497 171.607 173.338 171.717 173.199C171.938 172.923 172.259 172.746 172.611 172.706C172.962 172.666 173.315 172.766 173.593 172.985L175.697 174.66C175.834 174.77 175.949 174.906 176.034 175.06C176.119 175.214 176.173 175.383 176.192 175.558C176.217 175.732 176.205 175.909 176.156 176.077C176.108 176.246 176.024 176.402 175.911 176.536C175.786 176.694 175.627 176.822 175.446 176.91C175.266 176.998 175.067 177.045 174.866 177.045Z" fill="#231F20"/>
<path d="M93.9991 117.192L99.6594 110.068C100.168 109.428 100.91 109.017 101.722 108.924C102.534 108.831 103.35 109.064 103.99 109.573L128.854 129.33L119.359 141.281L94.4948 121.523C93.8548 121.014 93.4431 120.272 93.3501 119.46C93.2572 118.648 93.4906 117.832 93.9991 117.192Z" fill="#231F20"/>
<path d="M119.363 141.949C119.213 141.952 119.067 141.905 118.948 141.815L94.0772 122.049C93.6907 121.744 93.3685 121.365 93.1289 120.935C92.8893 120.504 92.7371 120.031 92.6811 119.541C92.625 119.052 92.6663 118.556 92.8024 118.083C92.9385 117.609 93.1668 117.168 93.4742 116.783L99.129 109.667C99.7479 108.89 100.65 108.389 101.637 108.276C102.625 108.163 103.616 108.447 104.395 109.064L129.266 128.816C129.404 128.927 129.492 129.088 129.512 129.263C129.532 129.439 129.482 129.616 129.373 129.755L119.886 141.708C119.832 141.776 119.765 141.832 119.689 141.874C119.613 141.915 119.529 141.941 119.443 141.949H119.363ZM102.077 109.573H101.796C101.48 109.606 101.175 109.701 100.896 109.853C100.618 110.005 100.373 110.21 100.174 110.458L94.5194 117.587C94.3222 117.835 94.1758 118.119 94.0886 118.424C94.0014 118.729 93.975 119.048 94.0111 119.362C94.0472 119.677 94.145 119.982 94.2989 120.259C94.4528 120.536 94.6597 120.78 94.9079 120.977L119.256 140.328L127.912 129.42L103.578 110.082C103.149 109.749 102.62 109.57 102.077 109.573Z" fill="#231F20"/>
<path d="M109.782 139.055C109.626 139.057 109.475 139.005 109.353 138.907C108.831 138.492 96.3819 128.723 94.7471 127.182C92.8577 125.399 93.7823 121.527 93.8225 121.366C93.8652 121.188 93.9766 121.035 94.1324 120.939C94.2883 120.844 94.4756 120.814 94.6533 120.857C94.831 120.899 94.9845 121.011 95.08 121.167C95.1755 121.322 95.2052 121.51 95.1625 121.688C94.9481 122.585 94.6131 125.158 95.6985 126.177C97.2797 127.664 110.077 137.728 110.211 137.822C110.353 137.935 110.445 138.1 110.467 138.28C110.49 138.46 110.441 138.642 110.331 138.787C110.265 138.869 110.181 138.935 110.086 138.982C109.991 139.028 109.888 139.053 109.782 139.055Z" fill="#231F20"/>
<path d="M98.4187 124.971C98.2568 124.972 98.0997 124.915 97.9765 124.81C97.9068 124.753 97.849 124.682 97.8066 124.603C97.7641 124.524 97.7377 124.436 97.729 124.347C97.7203 124.257 97.7294 124.167 97.7557 124.08C97.7821 123.994 97.8253 123.914 97.8827 123.845L107.397 112.347C107.514 112.205 107.683 112.116 107.866 112.098C108.05 112.081 108.233 112.137 108.375 112.253C108.446 112.311 108.504 112.383 108.547 112.464C108.589 112.545 108.615 112.634 108.622 112.725C108.63 112.817 108.619 112.908 108.59 112.995C108.561 113.082 108.516 113.163 108.455 113.232L98.9413 124.716C98.8796 124.796 98.8004 124.86 98.7097 124.904C98.6191 124.948 98.5196 124.971 98.4187 124.971Z" fill="white"/>
<path d="M129.815 203.659C131.155 201.435 132.227 195.619 132.227 195.619C132.227 195.619 143.711 196.543 146.123 193.019C148.535 189.495 155.757 164.476 153.345 160.214C150.933 155.953 141.674 150.03 138.9 148.918C136.126 147.805 124.803 150.03 124.803 150.03L133.701 141.132C133.701 141.132 148.16 149.655 154.645 149.092C161.131 148.529 162.993 146.13 159.657 142.244C156.32 138.358 132.039 127.41 127.966 127.972C123.892 128.535 105.909 145.393 105.534 147.805C105.159 150.217 91.2766 197.079 94.238 202.266" fill="white"/>
<path d="M129.815 204.343C129.694 204.335 129.578 204.293 129.48 204.222C129.401 204.178 129.332 204.118 129.277 204.047C129.221 203.975 129.181 203.894 129.157 203.806C129.133 203.719 129.127 203.628 129.139 203.538C129.151 203.449 129.18 203.362 129.225 203.284C130.292 200.794 131.074 198.191 131.557 195.525C131.592 195.36 131.686 195.213 131.822 195.112C131.958 195.011 132.125 194.962 132.294 194.976C135.376 195.217 143.778 195.284 145.56 192.671C147.865 189.321 154.94 164.449 152.769 160.603C150.424 156.476 141.192 150.606 138.646 149.601C136.528 148.743 128.046 150.137 124.951 150.74C124.807 150.771 124.656 150.754 124.523 150.691C124.39 150.628 124.281 150.523 124.214 150.392C124.144 150.26 124.118 150.11 124.14 149.963C124.162 149.816 124.23 149.68 124.334 149.574L133.232 140.676C133.342 140.57 133.484 140.502 133.636 140.482C133.788 140.463 133.943 140.493 134.076 140.569C134.21 140.649 148.387 148.958 154.605 148.449C157.915 148.167 159.965 147.363 160.488 146.197C161.01 145.031 159.992 143.732 159.148 142.727C156.012 139.055 131.946 128.2 128.073 128.696C124.442 129.179 106.7 145.648 106.218 147.939C106.137 148.435 105.628 150.338 104.556 154.265C101.286 166.245 92.6166 198.058 94.841 201.944C94.9333 202.104 94.9583 202.294 94.9106 202.472C94.8628 202.651 94.7462 202.803 94.5864 202.896C94.4257 202.984 94.2368 203.007 94.0594 202.96C93.882 202.912 93.7299 202.798 93.635 202.641C91.4374 198.782 96.9448 176.938 103.216 153.903C104.087 150.7 104.784 148.167 104.851 147.725C105.293 144.884 123.611 127.892 127.872 127.316C132.133 126.74 156.655 137.701 160.179 141.815C161.787 143.691 162.31 145.34 161.761 146.707C161.05 148.435 158.679 149.467 154.712 149.816C148.655 150.352 136.394 143.504 133.822 142.016L126.867 148.971C130.391 148.368 136.957 147.417 139.155 148.301C141.835 149.387 151.429 155.444 153.895 159.906C156.36 164.369 149.151 189.776 146.645 193.408C144.327 196.785 135.349 196.503 132.723 196.343C132.249 198.959 131.452 201.507 130.351 203.927C130.305 204.037 130.232 204.133 130.138 204.206C130.044 204.279 129.933 204.326 129.815 204.343Z" fill="#231F20"/>
<path d="M121.105 161.206C121.105 161.206 136.301 158.62 139.637 159.544C142.974 160.469 152.608 170.854 152.608 170.854" fill="white"/>
<path d="M152.608 171.538C152.513 171.54 152.419 171.521 152.331 171.484C152.243 171.448 152.164 171.393 152.099 171.323C149.419 168.469 142.036 160.925 139.45 160.214C136.863 159.504 125.406 161.179 121.212 161.889C121.033 161.917 120.85 161.873 120.703 161.768C120.555 161.663 120.454 161.505 120.422 161.327C120.404 161.237 120.405 161.146 120.425 161.057C120.444 160.968 120.481 160.885 120.533 160.811C120.586 160.737 120.653 160.674 120.731 160.627C120.808 160.58 120.894 160.549 120.984 160.536C121.614 160.429 136.381 157.856 139.825 158.874C143.269 159.893 152.113 169.3 153.118 170.385C153.245 170.514 153.317 170.687 153.317 170.868C153.317 171.049 153.245 171.222 153.118 171.35C153.052 171.418 152.972 171.469 152.884 171.502C152.796 171.534 152.702 171.547 152.608 171.538Z" fill="#231F20"/>
<path d="M132.227 195.686C132.227 195.686 134.813 187.9 134.264 182.714L132.227 195.686Z" fill="white"/>
<path d="M132.227 196.383C132.118 196.382 132.01 196.355 131.913 196.305C131.816 196.254 131.732 196.182 131.668 196.093C131.604 196.005 131.562 195.902 131.545 195.794C131.528 195.686 131.537 195.576 131.57 195.472C131.57 195.391 134.103 187.766 133.567 182.781C133.558 182.691 133.566 182.6 133.592 182.514C133.618 182.428 133.661 182.347 133.719 182.277C133.776 182.208 133.847 182.15 133.926 182.107C134.006 182.065 134.093 182.039 134.183 182.031C134.273 182.019 134.364 182.026 134.452 182.051C134.539 182.075 134.62 182.116 134.691 182.172C134.762 182.229 134.822 182.298 134.866 182.377C134.909 182.457 134.937 182.544 134.947 182.634C135.51 187.914 132.991 195.579 132.884 195.9C132.837 196.038 132.749 196.159 132.631 196.245C132.514 196.331 132.373 196.379 132.227 196.383Z" fill="#231F20"/>
<path d="M123.879 183.089C124.629 182.902 137.413 183.263 138.15 183.089H123.879Z" fill="white"/>
<path d="M136.327 183.826C135.202 183.826 133.513 183.826 130.967 183.826C128.06 183.826 124.428 183.733 123.986 183.826C123.809 183.855 123.628 183.816 123.479 183.716C123.33 183.617 123.224 183.465 123.182 183.29C123.142 183.118 123.171 182.937 123.264 182.786C123.357 182.635 123.506 182.528 123.678 182.486C126.11 182.35 128.548 182.35 130.981 182.486C133.902 182.486 137.52 182.58 137.962 182.486C138.139 182.454 138.322 182.492 138.472 182.592C138.622 182.692 138.727 182.846 138.766 183.022C138.807 183.194 138.78 183.376 138.69 183.528C138.6 183.681 138.454 183.792 138.284 183.84C137.632 183.877 136.979 183.873 136.327 183.826Z" fill="#231F20"/>
<path d="M118.76 171.404C118.76 171.404 129.694 168.992 134.84 170.064C139.986 171.136 149.299 182.299 150.223 183.223" fill="white"/>
<path d="M150.196 183.96C150.015 183.96 149.842 183.887 149.714 183.759C149.58 183.625 149.299 183.317 148.897 182.861C146.444 180.101 138.954 171.699 134.666 170.801C129.694 169.729 118.948 172.074 118.84 172.141C118.661 172.177 118.475 172.14 118.322 172.04C118.169 171.94 118.062 171.784 118.023 171.605C118.001 171.517 117.998 171.425 118.013 171.336C118.027 171.246 118.06 171.161 118.109 171.084C118.158 171.008 118.222 170.942 118.297 170.891C118.372 170.84 118.456 170.805 118.546 170.787C119.001 170.68 129.681 168.362 134.961 169.447C139.195 170.359 145.533 177.019 149.928 181.95C150.304 182.379 150.572 182.674 150.692 182.794C150.821 182.925 150.893 183.1 150.893 183.283C150.893 183.467 150.821 183.642 150.692 183.773C150.557 183.897 150.38 183.964 150.196 183.96Z" fill="#231F20"/>
<path d="M304.162 248.109C304.475 245.977 304.677 243.83 304.765 241.677C304.91 237.214 304.214 232.764 302.715 228.558C302.258 226.682 301.227 224.996 299.767 223.733C298.226 222.594 295.747 222.554 294.622 224.109C293.496 225.663 294.059 227.365 294.434 229.013C295.428 233.476 295.65 238.077 295.091 242.615C294.38 236.518 293.576 230.179 290.24 225.02C289.547 223.815 288.56 222.806 287.372 222.085C286.77 221.739 286.085 221.564 285.391 221.578C284.697 221.592 284.02 221.795 283.433 222.166C281.731 223.412 281.865 225.931 282.093 228.035C282.636 233.413 282.555 238.836 281.851 244.196C282.231 239.486 281.887 234.745 280.833 230.139C280.136 227.124 278.769 223.787 275.835 222.836C275.199 222.605 274.512 222.559 273.852 222.702C273.188 222.927 272.598 223.328 272.143 223.861C271.688 224.394 271.384 225.039 271.265 225.73C271.044 227.106 271.044 228.508 271.265 229.884C271.817 235.296 271.651 240.758 270.77 246.126C271.457 241.42 271.276 236.628 270.234 231.988C269.958 230.125 269.221 228.361 268.09 226.856C267.504 226.12 266.706 225.584 265.804 225.32C264.902 225.056 263.94 225.078 263.051 225.382C262.413 225.727 261.862 226.213 261.44 226.803C261.017 227.392 260.734 228.07 260.612 228.785C260.389 230.222 260.339 231.679 260.465 233.127C260.59 238.605 259.577 244.048 257.49 249.114C255.748 253.335 253.47 257.999 253.912 262.716C254.355 267.433 258.2 271.775 262.783 273.611C267.472 275.231 272.529 275.468 277.349 274.294C293.241 271.145 306.36 263.574 311.988 248.377" fill="white"/>
<path d="M270.703 275.688C267.912 275.729 265.139 275.242 262.529 274.254C257.383 272.19 253.644 267.553 253.242 262.769C252.867 258.387 254.69 254.032 256.298 250.213L256.86 248.873C258.911 243.892 259.905 238.539 259.781 233.154V232.484C259.678 231.204 259.741 229.915 259.969 228.651C260.105 227.828 260.432 227.048 260.923 226.374C261.414 225.699 262.055 225.148 262.796 224.765C263.823 224.417 264.93 224.388 265.974 224.682C267.017 224.977 267.946 225.58 268.639 226.413C269.635 227.663 270.327 229.126 270.662 230.688C270.662 230.447 270.662 230.206 270.595 229.978V229.643C270.37 228.312 270.37 226.953 270.595 225.623C270.739 224.807 271.102 224.046 271.645 223.42C272.187 222.795 272.89 222.329 273.677 222.072C274.466 221.896 275.288 221.947 276.049 222.219C278.729 223.077 280.511 225.703 281.503 230.018C281.503 230.166 281.57 230.326 281.61 230.474C281.557 229.697 281.49 228.919 281.409 228.142C281.168 225.757 281.087 223.077 283.057 221.643C283.747 221.192 284.548 220.941 285.372 220.92C286.195 220.899 287.009 221.107 287.72 221.522C289.014 222.297 290.092 223.385 290.856 224.685C292.681 227.675 293.948 230.971 294.595 234.414C294.436 232.665 294.163 230.928 293.777 229.214C293.389 227.472 292.92 225.355 294.085 223.747C294.374 223.358 294.737 223.031 295.153 222.785C295.57 222.539 296.031 222.378 296.511 222.313C297.814 222.119 299.141 222.441 300.209 223.211C301.781 224.564 302.895 226.371 303.399 228.383C304.946 232.675 305.655 237.225 305.489 241.784C305.489 242.441 305.395 243.03 305.368 243.58C305.292 245.156 305.126 246.726 304.873 248.283C304.876 248.387 304.857 248.491 304.815 248.586C304.774 248.682 304.712 248.767 304.633 248.835C304.554 248.904 304.461 248.953 304.361 248.981C304.261 249.008 304.155 249.013 304.053 248.995C303.95 248.976 303.853 248.935 303.769 248.874C303.684 248.813 303.615 248.734 303.565 248.643C303.515 248.552 303.486 248.45 303.48 248.346C303.475 248.242 303.493 248.138 303.533 248.042C303.781 246.534 303.942 245.013 304.015 243.486C304.015 242.936 304.082 242.347 304.135 241.677C304.295 237.307 303.608 232.948 302.112 228.839C301.697 227.101 300.762 225.53 299.432 224.336C298.656 223.783 297.695 223.553 296.752 223.693C296.454 223.729 296.166 223.824 295.906 223.974C295.646 224.123 295.418 224.324 295.238 224.564C294.434 225.676 294.809 227.378 295.144 228.879C296.173 233.432 296.404 238.13 295.828 242.762C295.805 242.928 295.724 243.08 295.598 243.191C295.473 243.302 295.311 243.364 295.144 243.365C294.975 243.363 294.812 243.299 294.686 243.186C294.56 243.072 294.48 242.917 294.461 242.749C293.791 237.04 293.027 230.568 289.717 225.435C289.066 224.329 288.144 223.406 287.037 222.755C286.555 222.468 286.004 222.317 285.443 222.317C284.881 222.317 284.33 222.468 283.848 222.755C282.508 223.774 282.508 225.998 282.763 228.008C283.301 233.441 283.215 238.917 282.508 244.33C282.478 244.507 282.383 244.665 282.241 244.775C282.1 244.884 281.922 244.936 281.744 244.92C281.565 244.903 281.4 244.816 281.285 244.678C281.169 244.54 281.113 244.362 281.128 244.183C281.512 239.54 281.173 234.865 280.123 230.326C279.252 226.521 277.724 224.229 275.594 223.532C275.079 223.343 274.522 223.302 273.985 223.412C273.452 223.611 272.98 223.948 272.618 224.388C272.255 224.828 272.015 225.355 271.922 225.918C271.728 227.111 271.728 228.329 271.922 229.522V229.857C272.481 235.332 272.314 240.856 271.426 246.287C271.393 246.465 271.292 246.623 271.145 246.728C270.997 246.833 270.815 246.877 270.635 246.849C270.545 246.836 270.459 246.805 270.38 246.758C270.302 246.711 270.234 246.649 270.181 246.576C270.127 246.502 270.089 246.418 270.068 246.329C270.047 246.241 270.044 246.149 270.059 246.059C270.734 241.434 270.557 236.724 269.537 232.162C269.277 230.419 268.591 228.767 267.54 227.351C267.06 226.72 266.397 226.253 265.642 226.013C264.886 225.773 264.075 225.772 263.319 226.011C262.777 226.306 262.31 226.722 261.955 227.226C261.599 227.73 261.365 228.31 261.269 228.919C261.073 230.074 261.019 231.249 261.108 232.417V233.087C261.26 238.668 260.242 244.218 258.12 249.382L257.557 250.722C255.936 254.595 254.247 258.588 254.596 262.635C254.971 266.937 258.361 271.091 263.038 272.954C266.884 274.495 271.654 274.709 277.215 273.611C294.903 270.1 306.387 261.55 311.345 248.149C311.407 247.972 311.537 247.826 311.707 247.744C311.876 247.663 312.071 247.652 312.249 247.714C312.427 247.776 312.573 247.906 312.654 248.076C312.736 248.245 312.747 248.441 312.685 248.618C307.539 262.515 295.707 271.399 277.523 274.991C275.278 275.449 272.994 275.682 270.703 275.688Z" fill="#231F20"/>
<path d="M33.2948 248.283C33.1887 248.284 33.0838 248.261 32.9884 248.214C32.8931 248.168 32.8098 248.1 32.7454 248.015C32.689 247.943 32.6475 247.861 32.623 247.773C32.5986 247.684 32.5918 247.592 32.603 247.501C32.6142 247.41 32.6432 247.323 32.6883 247.243C32.7334 247.163 32.7938 247.093 32.866 247.037L55.3646 229.777C55.4356 229.721 55.5171 229.68 55.6042 229.656C55.6913 229.631 55.7824 229.625 55.8722 229.636C55.9619 229.647 56.0485 229.676 56.127 229.721C56.2055 229.766 56.2743 229.826 56.3294 229.898C56.3857 229.97 56.4273 230.052 56.4517 230.141C56.4761 230.229 56.4829 230.321 56.4717 230.412C56.4605 230.503 56.4315 230.59 56.3864 230.67C56.3413 230.75 56.2809 230.82 56.2088 230.876L33.7102 248.136C33.5918 248.23 33.4457 248.282 33.2948 248.283Z" fill="#231F20"/>
<path d="M95.2162 59.9104C95.0619 59.9117 94.9117 59.8608 94.7901 59.7659C94.6684 59.671 94.5825 59.5377 94.5462 59.3878C92.496 50.798 90.5262 42.1277 88.677 33.5915L88.4894 32.7071C87.4969 28.9601 87.0013 25.0989 87.0154 21.2227C87.27 17.0283 90.352 16.8407 93.099 16.9345C93.2864 14.9531 93.901 13.0359 94.9003 11.3147C95.8996 9.59361 97.26 8.10945 98.8878 6.96443C107.115 1.28255 115.919 3.85548 124.428 6.348C130.056 7.99628 135.885 9.69816 141.366 8.88072C145.001 8.12954 148.499 6.82333 151.737 5.00793C152.917 4.41831 154.096 3.84208 155.288 3.30605C156.481 2.77002 168.755 -2.53664 171.744 3.49366C172.574 5.18214 171.891 7.05823 171.114 8.66631C169.576 11.8096 167.784 14.8214 165.754 17.6716C167.215 16.7109 168.774 15.9069 170.404 15.2728C173.447 13.9613 176.879 13.8749 179.985 15.0316C181.254 15.5216 182.336 16.3983 183.08 17.5375C184.527 19.9229 183.897 23.0854 181.191 26.918C178.806 30.305 176.187 33.5201 173.352 36.5397C174.142 36.1243 174.933 35.6284 175.697 35.1996C178.256 33.5915 180.909 31.9298 183.938 32.7205C184.479 32.8407 184.988 33.075 185.432 33.4077C185.876 33.7405 186.243 34.1641 186.51 34.6502C187.475 36.6871 185.773 38.9116 185.17 39.6486C180.306 45.9894 174.167 51.2394 167.147 55.0594C166.985 55.1453 166.796 55.1639 166.621 55.1112C166.445 55.0586 166.297 54.9388 166.209 54.778C166.123 54.616 166.105 54.4268 166.157 54.2512C166.21 54.0756 166.33 53.9278 166.491 53.8399C173.34 50.1152 179.329 44.9927 184.072 38.8044C185.237 37.2633 185.613 36.1243 185.197 35.2398C185.02 34.9367 184.78 34.6749 184.493 34.4716C184.207 34.2683 183.88 34.1282 183.536 34.0606C181.083 33.4173 178.805 34.8512 176.38 36.3655C174.674 37.5879 172.764 38.4956 170.739 39.0456C170.593 39.0775 170.44 39.0608 170.305 38.9978C170.169 38.9349 170.058 38.8293 169.988 38.6972C169.92 38.5645 169.896 38.4135 169.921 38.2664C169.945 38.1192 170.015 37.9837 170.122 37.8797C173.754 34.2762 177.063 30.3617 180.011 26.181C182.37 22.8174 182.986 20.1775 181.847 18.3014C181.241 17.4187 180.381 16.741 179.382 16.3583C176.604 15.3474 173.545 15.4385 170.832 16.6129C168.041 17.8237 165.415 19.3864 163.02 21.2629C162.887 21.3765 162.715 21.4346 162.54 21.4252C162.365 21.4158 162.201 21.3396 162.08 21.2124C161.96 21.0852 161.893 20.9166 161.894 20.7415C161.894 20.5664 161.961 20.3981 162.082 20.2713C165.111 16.5235 167.701 12.441 169.801 8.10349C170.43 6.76342 171.007 5.30275 170.43 4.08329C168.474 0.130098 160.005 2.66282 155.798 4.55231C154.618 5.08834 153.453 5.65117 152.287 6.22739C148.943 8.11521 145.327 9.47149 141.567 10.2476C135.778 11.1052 129.802 9.36315 124.026 7.67467C115.437 5.16874 107.343 2.79683 99.665 8.10349C98.1195 9.19382 96.843 10.6224 95.9328 12.2804C95.0225 13.9384 94.5025 15.7822 94.4122 17.6716C94.4126 17.7626 94.3937 17.8526 94.3567 17.9358C94.3198 18.0189 94.2656 18.0933 94.1978 18.154C94.0602 18.2737 93.8843 18.3402 93.702 18.3416C90.1242 18.1942 88.5564 18.422 88.342 21.3031C88.3417 25.0523 88.8236 28.786 89.7758 32.4123L89.9768 33.3101C91.8126 41.8195 93.7824 50.4898 95.8326 59.0662C95.8545 59.1542 95.8586 59.2457 95.8448 59.3353C95.831 59.425 95.7994 59.511 95.752 59.5883C95.7047 59.6656 95.6423 59.7327 95.5687 59.7858C95.4951 59.8388 95.4117 59.8766 95.3234 59.897L95.2162 59.9104Z" fill="#231F20"/>
</svg>
