<svg width="379" height="282" viewBox="0 0 379 282" fill="none" xmlns="http://www.w3.org/2000/svg">
<path d="M116.994 21.1125H223.687V87.2816C223.687 88.6288 223.151 89.9208 222.198 90.8734C221.245 91.8261 219.952 92.3612 218.604 92.3612H122.077C120.729 92.3612 119.436 91.8261 118.483 90.8734C117.53 89.9208 116.994 88.6288 116.994 87.2816V21.1125Z" fill="white"/>
<path d="M218.604 92.9627H122.077C120.568 92.9592 119.122 92.3576 118.056 91.2901C116.991 90.2225 116.392 88.7761 116.392 87.2681V21.1125C116.392 20.9517 116.455 20.7973 116.568 20.6823C116.68 20.5674 116.833 20.5011 116.994 20.4976H223.687C223.85 20.4976 224.006 20.5623 224.122 20.6777C224.237 20.793 224.302 20.9494 224.302 21.1125V87.2681C224.302 88.7784 223.701 90.2269 222.633 91.2948C221.564 92.3627 220.115 92.9627 218.604 92.9627ZM117.609 21.7274V87.228C117.609 88.4134 118.08 89.5504 118.917 90.3898C119.754 91.2292 120.891 91.7026 122.077 91.7061H218.604C219.792 91.7061 220.932 91.2343 221.772 90.3945C222.613 89.5547 223.085 88.4157 223.085 87.228V21.7274H117.609Z" fill="#231F20"/>
<path d="M122.077 11.6484H218.604C219.952 11.6484 221.245 12.1836 222.198 13.1362C223.151 14.0888 223.687 15.3809 223.687 16.7281V21.1126H116.994V16.7281C116.994 15.3809 117.53 14.0888 118.483 13.1362C119.436 12.1836 120.729 11.6484 122.077 11.6484Z" fill="white"/>
<path d="M223.687 21.7275H116.994C116.833 21.724 116.68 21.6577 116.568 21.5427C116.455 21.4278 116.392 21.2734 116.392 21.1126V16.7281C116.396 15.2224 116.996 13.7794 118.061 12.7148C119.126 11.6501 120.57 11.0504 122.077 11.0469H218.604C220.108 11.0539 221.549 11.6552 222.611 12.7195C223.673 13.7837 224.272 15.2247 224.275 16.7281V21.1126C224.275 21.2711 224.214 21.4236 224.104 21.5382C223.995 21.6528 223.845 21.7206 223.687 21.7275ZM117.609 20.4977H223.085V16.7281C223.081 15.5427 222.607 14.4071 221.768 13.5702C220.928 12.7333 219.79 12.2633 218.604 12.2633H122.077C120.893 12.2668 119.759 12.7384 118.922 13.5749C118.085 14.4114 117.613 15.545 117.609 16.7281V20.4977Z" fill="#231F20"/>
<path d="M143.263 47.5936C147.059 47.5936 150.137 44.5174 150.137 40.7227C150.137 36.928 147.059 33.8518 143.263 33.8518C139.466 33.8518 136.388 36.928 136.388 40.7227C136.388 44.5174 139.466 47.5936 143.263 47.5936Z" fill="#2128CF"/>
<path d="M130.77 61.4957C130.877 58.2533 132.24 55.1793 134.572 52.9232C136.905 50.6671 140.023 49.4058 143.269 49.4058C146.515 49.4058 149.634 50.6671 151.966 52.9232C154.299 55.1793 155.662 58.2533 155.768 61.4957H130.77Z" fill="#2128CF"/>
<path d="M197.418 47.5936C201.215 47.5936 204.293 44.5174 204.293 40.7227C204.293 36.928 201.215 33.8518 197.418 33.8518C193.621 33.8518 190.543 36.928 190.543 40.7227C190.543 44.5174 193.621 47.5936 197.418 47.5936Z" fill="#2128CF"/>
<path d="M184.926 61.4957C185.032 58.2533 186.395 55.1793 188.728 52.9232C191.06 50.6671 194.179 49.4058 197.425 49.4058C200.671 49.4058 203.789 50.6671 206.122 52.9232C208.454 55.1793 209.818 58.2533 209.924 61.4957H184.926Z" fill="#2128CF"/>
<path d="M182.077 41.3376H166.027C165.864 41.3376 165.707 41.2729 165.592 41.1575C165.476 41.0422 165.412 40.8858 165.412 40.7227C165.412 40.5597 165.476 40.4032 165.592 40.2879C165.707 40.1726 165.864 40.1078 166.027 40.1078H180.659L177.462 36.7526C177.406 36.6966 177.361 36.63 177.33 36.5566C177.3 36.4832 177.284 36.4044 177.284 36.3248C177.284 36.2453 177.3 36.1665 177.33 36.0931C177.361 36.0196 177.406 35.953 177.462 35.8971C177.579 35.7851 177.735 35.7227 177.897 35.7227C178.059 35.7227 178.215 35.7851 178.332 35.8971L182.505 40.295C182.589 40.3792 182.645 40.4869 182.667 40.6038C182.688 40.7207 182.674 40.8414 182.625 40.95C182.581 41.0608 182.506 41.1564 182.409 41.2252C182.311 41.294 182.196 41.3331 182.077 41.3376Z" fill="#231F20"/>
<path d="M178.064 45.2542C177.898 45.2526 177.74 45.1853 177.623 45.0671C177.508 44.9518 177.443 44.7955 177.443 44.6326C177.443 44.4697 177.508 44.3135 177.623 44.1982L181.635 40.2949C181.754 40.1885 181.909 40.1321 182.068 40.1376C182.227 40.143 182.378 40.2098 182.489 40.324C182.599 40.4382 182.662 40.5909 182.662 40.75C182.663 40.9091 182.601 41.0622 182.491 41.1771L178.479 45.0804C178.368 45.1886 178.22 45.2506 178.064 45.2542Z" fill="#231F20"/>
<path d="M174.466 46.4841H158.416C158.298 46.4861 158.181 46.4529 158.081 46.3886C157.981 46.3244 157.902 46.232 157.855 46.1232C157.807 46.0123 157.793 45.8897 157.814 45.7709C157.836 45.652 157.892 45.5421 157.975 45.4548L162.148 41.0703C162.203 41.009 162.269 40.9592 162.343 40.924C162.418 40.8887 162.498 40.8687 162.58 40.8651C162.662 40.8615 162.744 40.8743 162.821 40.9029C162.898 40.9315 162.969 40.9752 163.029 41.0314C163.089 41.0877 163.137 41.1554 163.17 41.2305C163.203 41.3056 163.221 41.3866 163.223 41.4687C163.224 41.5508 163.209 41.6324 163.178 41.7086C163.148 41.7848 163.102 41.8541 163.044 41.9124L159.834 45.2543H174.466C174.629 45.2577 174.783 45.3236 174.898 45.4382C175.012 45.5528 175.078 45.7072 175.082 45.8692C175.082 46.0323 175.017 46.1887 174.902 46.304C174.786 46.4193 174.63 46.4841 174.466 46.4841Z" fill="#231F20"/>
<path d="M162.416 50.3872C162.338 50.3884 162.262 50.3735 162.19 50.3436C162.119 50.3137 162.054 50.2694 162.001 50.2135L157.989 46.3235C157.877 46.2066 157.814 46.051 157.814 45.8891C157.814 45.7272 157.877 45.5716 157.989 45.4546C158.104 45.3395 158.26 45.2749 158.423 45.2749C158.586 45.2749 158.743 45.3395 158.858 45.4546L162.87 49.3579C162.927 49.4139 162.972 49.4805 163.003 49.5539C163.033 49.6274 163.049 49.7061 163.049 49.7857C163.049 49.8653 163.033 49.944 163.003 50.0175C162.972 50.0909 162.927 50.1575 162.87 50.2135C162.81 50.2712 162.739 50.3163 162.661 50.3461C162.582 50.376 162.499 50.3899 162.416 50.3872Z" fill="#231F20"/>
<path d="M202.153 69.5831H138.528C138.351 69.5831 138.18 69.5127 138.055 69.3873C137.93 69.262 137.859 69.092 137.859 68.9147C137.863 68.7385 137.934 68.5705 138.059 68.4459C138.183 68.3213 138.352 68.2498 138.528 68.2463H202.153C202.33 68.2463 202.5 68.3168 202.626 68.4421C202.751 68.5674 202.822 68.7374 202.822 68.9147C202.822 69.092 202.751 69.262 202.626 69.3873C202.5 69.5127 202.33 69.5831 202.153 69.5831Z" fill="#9A9EE8"/>
<path d="M202.153 74.1012H138.528C138.351 74.1012 138.18 74.0307 138.055 73.9054C137.93 73.78 137.859 73.61 137.859 73.4328C137.863 73.2566 137.934 73.0886 138.059 72.9639C138.183 72.8393 138.352 72.7678 138.528 72.7644H202.153C202.33 72.7644 202.5 72.8348 202.626 72.9602C202.751 73.0855 202.822 73.2555 202.822 73.4328C202.822 73.61 202.751 73.78 202.626 73.9054C202.5 74.0307 202.33 74.1012 202.153 74.1012Z" fill="#9A9EE8"/>
<path d="M195.612 78.6729H138.528C138.351 78.6729 138.18 78.6025 138.055 78.4772C137.93 78.3518 137.859 78.1818 137.859 78.0046C137.863 77.8284 137.934 77.6603 138.059 77.5357C138.183 77.4111 138.352 77.3396 138.528 77.3362H195.612C195.789 77.3396 195.957 77.4111 196.081 77.5357C196.206 77.6603 196.278 77.8284 196.281 78.0046C196.281 78.1818 196.211 78.3518 196.085 78.4772C195.96 78.6025 195.79 78.6729 195.612 78.6729Z" fill="#9A9EE8"/>
<path d="M124.498 18.0112C125.399 18.0112 126.129 17.281 126.129 16.3803C126.129 15.4797 125.399 14.7495 124.498 14.7495C123.596 14.7495 122.866 15.4797 122.866 16.3803C122.866 17.281 123.596 18.0112 124.498 18.0112Z" fill="#2128CF"/>
<path d="M130.249 18.0112C131.15 18.0112 131.881 17.281 131.881 16.3803C131.881 15.4797 131.15 14.7495 130.249 14.7495C129.348 14.7495 128.617 15.4797 128.617 16.3803C128.617 17.281 129.348 18.0112 130.249 18.0112Z" fill="#9A9EE8"/>
<path d="M136 18.0112C136.901 18.0112 137.632 17.281 137.632 16.3803C137.632 15.4797 136.901 14.7495 136 14.7495C135.099 14.7495 134.368 15.4797 134.368 16.3803C134.368 17.281 135.099 18.0112 136 18.0112Z" fill="#9A9EE8"/>
<path d="M240.205 15.0037H377.887V177.392C377.887 179.164 377.182 180.865 375.928 182.118C374.674 183.371 372.973 184.076 371.199 184.076H246.879C245.105 184.076 243.404 183.371 242.15 182.118C240.896 180.865 240.191 179.164 240.191 177.392V15.0037H240.205Z" fill="white"/>
<path d="M371.199 184.744H246.812C244.863 184.74 242.996 183.964 241.619 182.586C240.242 181.207 239.469 179.339 239.469 177.392V15.0036C239.469 14.8263 239.539 14.6563 239.665 14.531C239.79 14.4056 239.96 14.3352 240.138 14.3352H377.887C378.064 14.3352 378.234 14.4056 378.36 14.531C378.485 14.6563 378.556 14.8263 378.556 15.0036V177.392C378.552 179.341 377.776 181.209 376.397 182.587C375.018 183.965 373.149 184.74 371.199 184.744ZM240.873 15.672V177.419C240.873 179.012 241.506 180.54 242.631 181.667C243.757 182.795 245.285 183.43 246.879 183.434H371.266C372.861 183.43 374.39 182.795 375.518 181.668C376.646 180.541 377.281 179.013 377.285 177.419V15.672H240.873Z" fill="#231F20"/>
<path d="M349.813 170.695H268.225C266.51 170.681 264.869 169.995 263.654 168.786C262.438 167.576 261.746 165.939 261.725 164.225V160.348C261.729 158.616 262.419 156.955 263.645 155.73C264.87 154.505 266.532 153.815 268.265 153.812H349.853C351.588 153.812 353.251 154.5 354.478 155.726C355.704 156.952 356.393 158.615 356.393 160.348V164.225C356.376 165.954 355.673 167.605 354.44 168.818C353.207 170.03 351.543 170.705 349.813 170.695ZM268.225 155.148C266.852 155.159 265.539 155.711 264.572 156.685C263.605 157.659 263.062 158.976 263.063 160.348V164.225C263.066 165.602 263.616 166.921 264.591 167.893C265.566 168.865 266.888 169.411 268.265 169.411H349.853C351.231 169.411 352.552 168.865 353.527 167.893C354.503 166.921 355.052 165.602 355.056 164.225V160.348C355.056 158.969 354.508 157.646 353.532 156.671C352.556 155.696 351.233 155.148 349.853 155.148H268.225Z" fill="#231F20"/>
<path d="M270.807 59.5039H259.893V138.118H270.807V59.5039Z" fill="#2128CF"/>
<path d="M290.949 77.9109H280.035V138.105H290.949V77.9109Z" fill="#2128CF"/>
<path d="M311.079 65.9204H300.165V138.118H311.079V65.9204Z" fill="#2128CF"/>
<path d="M331.221 87.6692H320.307V138.105H331.221V87.6692Z" fill="#2128CF"/>
<path d="M351.364 65.9204H340.45V138.118H351.364V65.9204Z" fill="#2128CF"/>
<path d="M351.11 29.2132H332.612C332.435 29.2132 332.265 29.1428 332.14 29.0175C332.014 28.8921 331.944 28.7221 331.944 28.5448C331.944 28.3676 332.014 28.1976 332.14 28.0722C332.265 27.9469 332.435 27.8765 332.612 27.8765H351.083C351.26 27.8799 351.428 27.9514 351.552 28.076C351.677 28.2006 351.749 28.3686 351.752 28.5448C351.752 28.7176 351.685 28.8836 351.566 29.0082C351.446 29.1329 351.283 29.2063 351.11 29.2132Z" fill="#231F20"/>
<path d="M344.65 36.0975H332.612C332.435 36.0975 332.265 36.0271 332.14 35.9017C332.014 35.7764 331.944 35.6064 331.944 35.4291C331.944 35.2519 332.014 35.0818 332.14 34.9565C332.265 34.8312 332.435 34.7607 332.612 34.7607H344.65C344.827 34.7607 344.997 34.8312 345.123 34.9565C345.248 35.0818 345.319 35.2519 345.319 35.4291C345.319 35.6064 345.248 35.7764 345.123 35.9017C344.997 36.0271 344.827 36.0975 344.65 36.0975Z" fill="#231F20"/>
<path d="M327.115 66.7357C321.284 66.7357 316.201 60.2391 312.109 54.9991C309.434 51.6037 306.933 48.3153 305.261 48.3153C303.361 48.3153 300.74 49.8793 297.971 51.4834C294.2 53.6623 289.946 56.1353 285.934 55.9081C278.43 55.507 264.333 38.9581 263.745 38.2496C263.689 38.1868 263.647 38.1136 263.621 38.0343C263.594 37.955 263.583 37.8712 263.59 37.7877C263.596 37.7043 263.619 37.623 263.657 37.5485C263.695 37.474 263.747 37.4079 263.812 37.354C263.934 37.2364 264.097 37.1707 264.266 37.1707C264.436 37.1707 264.599 37.2364 264.721 37.354C264.855 37.5278 279.046 54.197 286.001 54.5713C289.665 54.7852 293.758 52.4058 297.369 50.3071C300.285 48.6228 303.04 47.0321 305.261 46.9652C307.481 46.8984 310.062 50.0665 313.192 54.0901C317.205 59.2098 322.153 65.5728 327.517 65.3188C332.158 65.0915 334.378 61.0545 336.732 56.777C339.086 52.4994 341.32 48.4089 346.014 47.5133C346.173 47.5007 346.331 47.5474 346.457 47.6445C346.583 47.7416 346.669 47.8821 346.697 48.0387C346.725 48.1953 346.694 48.3568 346.61 48.4919C346.526 48.627 346.395 48.7261 346.242 48.7698C342.149 49.5451 340.062 53.3549 337.842 57.3919C335.435 61.7898 332.934 66.3347 327.584 66.6021L327.115 66.7357Z" fill="#9A9EE8"/>
<path d="M360.7 138.747H251.025C250.941 138.747 250.858 138.73 250.781 138.697C250.704 138.665 250.634 138.618 250.576 138.558C250.517 138.498 250.471 138.427 250.44 138.349C250.41 138.272 250.395 138.189 250.396 138.105C250.403 137.942 250.472 137.787 250.589 137.673C250.706 137.559 250.862 137.493 251.025 137.49H360.7C360.87 137.49 361.034 137.558 361.154 137.678C361.274 137.798 361.342 137.961 361.342 138.132C361.34 138.214 361.322 138.295 361.289 138.371C361.256 138.447 361.208 138.515 361.148 138.572C361.089 138.629 361.019 138.674 360.942 138.704C360.865 138.734 360.783 138.748 360.7 138.747Z" fill="#9A9EE8"/>
<path d="M264.4 40.295C263.913 40.295 263.437 40.1507 263.033 39.8804C262.628 39.6102 262.313 39.226 262.126 38.7766C261.94 38.3272 261.891 37.8326 261.986 37.3555C262.081 36.8784 262.316 36.4401 262.66 36.0961C263.004 35.7522 263.443 35.5179 263.92 35.423C264.397 35.3281 264.892 35.3768 265.342 35.563C265.791 35.7491 266.176 36.0644 266.446 36.4689C266.717 36.8733 266.861 37.3489 266.861 37.8353C266.861 38.4877 266.602 39.1133 266.14 39.5746C265.679 40.0358 265.053 40.295 264.4 40.295ZM264.4 36.659C264.164 36.659 263.933 36.7292 263.737 36.8605C263.541 36.9918 263.389 37.1784 263.299 37.3966C263.209 37.6148 263.187 37.8546 263.234 38.0858C263.281 38.3169 263.395 38.5289 263.563 38.6947C263.731 38.8605 263.944 38.9728 264.176 39.0172C264.408 39.0616 264.648 39.0361 264.865 38.944C265.082 38.8519 265.267 38.6973 265.396 38.4999C265.526 38.3025 265.593 38.0712 265.59 37.8353C265.59 37.6797 265.56 37.5257 265.5 37.3821C265.44 37.2385 265.352 37.1082 265.241 36.9988C265.13 36.8894 264.999 36.803 264.855 36.7447C264.71 36.6864 264.556 36.6572 264.4 36.659Z" fill="#9A9EE8"/>
<path d="M345.987 50.7349C345.501 50.7322 345.027 50.5857 344.624 50.3139C344.221 50.042 343.908 49.657 343.723 49.2073C343.539 48.7576 343.492 48.2635 343.589 47.7873C343.685 47.311 343.921 46.874 344.265 46.5314C344.61 46.1887 345.049 45.9558 345.526 45.862C346.003 45.7681 346.497 45.8176 346.946 46.0042C347.395 46.1907 347.778 46.506 348.048 46.9102C348.318 47.3144 348.462 47.7894 348.462 48.2753C348.458 48.9288 348.196 49.5544 347.732 50.0153C347.269 50.4762 346.641 50.7349 345.987 50.7349ZM345.987 47.0856C345.752 47.0856 345.522 47.1553 345.326 47.286C345.13 47.4168 344.978 47.6026 344.888 47.82C344.798 48.0374 344.774 48.2766 344.82 48.5074C344.866 48.7381 344.979 48.9501 345.146 49.1165C345.312 49.2829 345.524 49.3962 345.755 49.4421C345.986 49.488 346.225 49.4645 346.443 49.3744C346.661 49.2844 346.846 49.1319 346.977 48.9362C347.108 48.7406 347.178 48.5106 347.178 48.2753C347.178 47.9597 347.052 47.6571 346.829 47.434C346.606 47.2109 346.303 47.0856 345.987 47.0856Z" fill="#9A9EE8"/>
<path d="M246.879 1.1416H371.199C372.973 1.1416 374.674 1.84578 375.928 3.09922C377.182 4.35267 377.887 6.05271 377.887 7.82534V14.9769H240.205V7.82534C240.205 6.05502 240.907 4.35701 242.159 3.10395C243.41 1.85089 245.107 1.14514 246.879 1.1416Z" fill="white"/>
<path d="M377.887 15.672H240.205C240.027 15.672 239.857 15.6016 239.732 15.4762C239.606 15.3509 239.536 15.1809 239.536 15.0036V7.82526C239.536 5.87767 240.309 4.00966 241.686 2.63125C243.062 1.25285 244.93 0.476686 246.879 0.473145H371.266C373.216 0.476678 375.085 1.25241 376.464 2.63044C377.843 4.00846 378.619 5.87644 378.622 7.82526V14.9769C378.627 15.0728 378.61 15.1685 378.574 15.2575C378.538 15.3465 378.484 15.4267 378.414 15.4927C378.344 15.5587 378.261 15.6088 378.17 15.6397C378.079 15.6707 377.982 15.6817 377.887 15.672ZM240.873 14.3352H377.218V7.82526C377.215 6.23097 376.579 4.70299 375.451 3.57565C374.323 2.44832 372.795 1.81342 371.199 1.80989H246.812C245.218 1.81343 243.69 2.44875 242.565 3.57647C241.439 4.70419 240.807 6.2322 240.807 7.82526L240.873 14.3352Z" fill="#231F20"/>
<path d="M98.1354 83.7927H6.02178C3.31082 83.7927 1.11316 85.9892 1.11316 88.6986V204.06C1.11316 206.769 3.31082 208.966 6.02178 208.966H98.1354C100.846 208.966 103.044 206.769 103.044 204.06V88.6986C103.044 85.9892 100.846 83.7927 98.1354 83.7927Z" fill="white"/>
<path d="M98.1354 209.674H6.02177C4.54256 209.674 3.12393 209.087 2.07797 208.042C1.03201 206.996 0.444397 205.578 0.444397 204.1V88.6985C0.447929 87.2212 1.03668 85.8054 2.08187 84.7608C3.12707 83.7162 4.54364 83.1278 6.02177 83.1243H98.1354C99.6135 83.1278 101.03 83.7162 102.075 84.7608C103.12 85.8054 103.709 87.2212 103.713 88.6985V204.06C103.718 204.795 103.578 205.524 103.3 206.205C103.022 206.886 102.612 207.506 102.093 208.027C101.575 208.549 100.958 208.964 100.279 209.246C99.5998 209.529 98.8712 209.674 98.1354 209.674ZM6.02177 84.461C4.89837 84.4645 3.82199 84.9121 3.02762 85.706C2.23326 86.5 1.78542 87.5757 1.7819 88.6985V204.06C1.7766 204.62 1.88235 205.175 2.09305 205.694C2.30375 206.213 2.61521 206.684 3.00945 207.082C3.40369 207.48 3.87288 207.796 4.38992 208.011C4.90695 208.227 5.46159 208.338 6.02177 208.338H98.1354C99.2599 208.338 100.338 207.891 101.133 207.096C101.929 206.302 102.375 205.224 102.375 204.1V88.6985C102.372 87.5757 101.924 86.5 101.13 85.706C100.335 84.9121 99.2588 84.4645 98.1354 84.461H6.02177Z" fill="#231F20"/>
<path d="M77.3507 182.525H22.4195C22.2422 182.525 22.0721 182.455 21.9467 182.329C21.8213 182.204 21.7508 182.034 21.7508 181.857C21.7542 181.68 21.8258 181.512 21.9505 181.388C22.0751 181.263 22.2433 181.192 22.4195 181.188H77.3507C77.528 181.188 77.6981 181.259 77.8235 181.384C77.949 181.509 78.0194 181.679 78.0194 181.857C78.0194 182.034 77.949 182.204 77.8235 182.329C77.6981 182.455 77.528 182.525 77.3507 182.525Z" fill="#9A9EE8"/>
<path d="M50.828 191.494H22.4195C22.2433 191.491 22.0751 191.42 21.9505 191.295C21.8258 191.17 21.7542 191.002 21.7508 190.826C21.7508 190.649 21.8213 190.479 21.9467 190.353C22.0721 190.228 22.2422 190.158 22.4195 190.158H50.828C51.0054 190.158 51.1755 190.228 51.3009 190.353C51.4263 190.479 51.4968 190.649 51.4968 190.826C51.4934 191.002 51.4218 191.17 51.2971 191.295C51.1724 191.42 51.0043 191.491 50.828 191.494Z" fill="#9A9EE8"/>
<path d="M25.8167 111.971C33.8417 119.992 41.8355 127.986 49.7981 135.953C49.92 136.085 50.0692 136.19 50.2355 136.259C50.4018 136.328 50.5811 136.361 50.7611 136.354H87.5022C87.301 142.026 85.7385 147.566 82.9464 152.509C80.1544 157.451 76.2147 161.65 71.4591 164.752C66.7036 167.854 61.2717 169.768 55.6211 170.333C49.9706 170.898 44.2669 170.097 38.9907 167.998C33.7146 165.899 29.0206 162.564 25.3042 158.272C21.5879 153.981 18.9581 148.859 17.6366 143.339C16.315 137.82 16.3403 132.063 17.7104 126.555C19.0805 121.047 21.7552 115.949 25.5091 111.691L25.8167 111.971Z" fill="#2128CF"/>
<path d="M53.3559 99.6331V133.827H53.7036L86.8202 133.747C87.5558 133.747 87.5558 133.747 87.5023 133.012C87.0847 126.508 84.8948 120.243 81.1699 114.894C77.4449 109.546 72.3268 105.317 66.3698 102.667C62.7336 101.08 58.8613 100.1 54.9074 99.7667L53.3559 99.6331Z" fill="#9A9EE8"/>
<path d="M50.828 133.373V99.6599C46.85 99.8662 42.9286 100.692 39.2052 102.106C34.7512 103.867 30.6881 106.488 27.2479 109.819L50.828 133.373Z" fill="#9A9EE8"/>
<path d="M156.999 115.166C149.121 112.8 144.961 103.59 142.861 96.2646C140.507 87.9366 137.739 81.1192 141.096 72.4437C141.858 70.452 143.089 68.4335 145.108 67.7918C145.613 67.7193 146.098 67.5514 146.54 67.2972C146.891 66.9506 147.152 66.524 147.302 66.0541C152.09 54.7719 165.639 54.4645 175.804 56.0552C181.689 56.9776 189.326 59.6644 191.159 65.7065C194.516 76.8416 191.68 88.9526 185.501 98.5772C179.723 107.627 168.796 118.775 156.999 115.166Z" fill="white"/>
<path d="M161.506 116.503C159.915 116.507 158.333 116.273 156.811 115.808C148.586 113.335 144.333 103.924 142.219 96.4516C141.952 95.5025 141.684 94.5667 141.403 93.6444C139.263 86.3858 137.391 80.1031 140.467 72.2564C141.551 69.4359 143.075 67.7382 144.961 67.2035L145.363 67.1099C145.689 67.1127 146.005 66.996 146.252 66.7817C146.498 66.5675 146.658 66.2706 146.7 65.947C151.689 54.237 165.425 53.7825 175.965 55.4535C179.977 56.0817 189.687 58.3409 191.867 65.5727C195.051 76.1597 192.964 88.2974 186.13 98.9914C180.338 107.907 171.216 116.503 161.506 116.503ZM167.445 56.0283C159.42 56.0283 151.395 58.3008 147.957 66.3079C147.778 66.8887 147.445 67.4105 146.994 67.8184C146.596 68.0981 146.138 68.2812 145.657 68.3531L145.322 68.4467C143.865 68.8477 142.647 70.278 141.711 72.6842C138.822 80.1566 140.614 86.2388 142.688 93.2701C142.968 94.1924 143.236 95.1282 143.517 96.0906C145.536 103.229 149.549 112.239 157.199 114.538C167.899 117.733 178.599 108.202 184.979 98.2161C191.6 87.8964 193.633 76.1196 190.557 65.8935C188.59 59.3969 179.536 57.3116 175.737 56.7234C172.995 56.2785 170.223 56.0461 167.445 56.0283Z" fill="#231F20"/>
<path d="M192.79 92.6287C192.79 92.6287 201.23 103.176 199.906 105.649C198.582 108.122 193.339 106.985 193.339 106.985" fill="white"/>
<path d="M195.84 107.961C194.941 107.962 194.045 107.872 193.165 107.694C192.987 107.658 192.831 107.554 192.731 107.404C192.631 107.253 192.594 107.069 192.63 106.892C192.665 106.714 192.77 106.559 192.92 106.458C193.071 106.358 193.255 106.322 193.432 106.357C194.77 106.624 198.394 106.972 199.277 105.314C199.973 103.978 196.147 97.9222 192.229 93.0163C192.117 92.8773 192.064 92.7001 192.082 92.5227C192.099 92.3453 192.185 92.1818 192.322 92.0672C192.464 91.9604 192.642 91.912 192.818 91.9319C192.995 91.9518 193.157 92.0384 193.272 92.1742C195.318 94.7407 201.885 103.283 200.454 105.943C199.625 107.587 197.525 107.961 195.84 107.961Z" fill="#231F20"/>
<path d="M189.848 77.9242C194.93 81.3463 194.302 89.6341 194.743 94.941C195.358 102.4 195.804 109.877 196.08 117.372C196.254 122.117 184.043 123.334 181.729 122.117L185.34 140.631L158.737 133.092L157.601 111.45C157.601 111.45 165.626 110.768 169.638 100.756C173.651 90.7436 172.005 75.8924 172.005 75.8924C172.005 75.8924 184.886 74.569 189.848 77.9242Z" fill="white"/>
<path d="M185.34 141.3H185.153L158.524 133.76C158.389 133.724 158.268 133.647 158.179 133.539C158.091 133.431 158.038 133.298 158.029 133.159L156.892 111.504C156.884 111.333 156.942 111.165 157.054 111.036C157.166 110.907 157.323 110.825 157.494 110.808C157.815 110.808 165.238 110.02 168.943 100.489C172.755 90.677 171.283 76.0797 171.27 75.9326C171.259 75.7556 171.311 75.5803 171.417 75.438C171.473 75.3699 171.542 75.3136 171.62 75.2723C171.698 75.231 171.784 75.2055 171.872 75.1974C172.407 75.1974 185.126 73.9542 190.222 77.3897C194.73 80.4375 195.011 86.8539 195.238 92.0939C195.238 93.1099 195.332 94.0857 195.412 94.9813C196.027 102.44 196.482 109.993 196.749 117.439C196.743 118.194 196.524 118.932 196.117 119.568C195.71 120.204 195.132 120.712 194.449 121.035C191.332 122.986 185.447 123.641 182.585 123.16L185.996 140.538C186.017 140.651 186.01 140.767 185.975 140.877C185.94 140.987 185.878 141.086 185.795 141.166C185.662 141.259 185.503 141.306 185.34 141.3ZM159.339 132.584L184.471 139.696L181.074 122.251C181.045 122.127 181.054 121.997 181.099 121.878C181.144 121.759 181.224 121.656 181.328 121.583C181.435 121.518 181.557 121.483 181.682 121.483C181.807 121.483 181.93 121.518 182.037 121.583C183.521 122.371 190.396 121.957 193.74 119.872C194.89 119.15 195.452 118.334 195.412 117.452C195.144 110.02 194.69 102.48 194.074 95.0481C193.994 94.1392 193.954 93.15 193.9 92.1073C193.686 87.2415 193.419 81.1861 189.473 78.5259C185.461 75.7722 175.336 76.3069 172.661 76.4941C172.915 79.5552 173.691 92.0004 170.187 100.997C166.682 109.993 160.329 111.691 158.256 112.078L159.339 132.584Z" fill="#231F20"/>
<path d="M195.398 111.824C195.398 111.824 188.069 111.824 186.317 101.932L195.398 111.824Z" fill="white"/>
<path d="M195.398 112.493C195.318 112.493 187.48 112.372 185.648 102.053C185.621 101.878 185.663 101.699 185.765 101.554C185.867 101.409 186.022 101.31 186.196 101.277C186.37 101.246 186.549 101.285 186.694 101.385C186.84 101.485 186.94 101.639 186.972 101.812C188.59 111.009 195.131 111.169 195.398 111.169C195.576 111.169 195.746 111.24 195.871 111.365C195.997 111.49 196.067 111.66 196.067 111.838C196.064 112.013 195.992 112.179 195.867 112.302C195.742 112.424 195.573 112.493 195.398 112.493Z" fill="#231F20"/>
<path d="M178.907 98.724C178.525 96.8803 177.641 95.1778 176.352 93.8048C175.507 92.6134 174.488 91.5547 173.33 90.6634C172.749 90.2203 172.076 89.9124 171.361 89.762C170.646 89.6117 169.907 89.6228 169.197 89.7946C168.595 90.0135 168.046 90.3563 167.585 90.8007C167.124 91.2451 166.762 91.7813 166.522 92.3745C166.041 93.5748 165.836 94.8674 165.92 96.1575C166.046 98.9785 166.915 101.716 168.44 104.094C169.964 106.472 172.089 108.405 174.6 109.699L174.159 109.284" fill="white"/>
<path d="M174.56 110.341C174.457 110.339 174.356 110.311 174.266 110.26C171.656 108.905 169.446 106.89 167.857 104.415C166.269 101.941 165.356 99.094 165.211 96.1577C165.129 94.7889 165.353 93.419 165.866 92.1474C166.151 91.4603 166.578 90.8416 167.12 90.3322C167.662 89.8228 168.306 89.4346 169.01 89.1932C169.816 88.9899 170.658 88.9708 171.473 89.1374C172.288 89.304 173.056 89.6521 173.717 90.1557C174.931 91.0792 175.996 92.1838 176.874 93.4307C178.243 94.9005 179.17 96.7257 179.549 98.6975C179.568 98.8729 179.516 99.0485 179.406 99.1862C179.296 99.324 179.136 99.4125 178.96 99.4327C178.785 99.4515 178.609 99.4002 178.471 99.29C178.334 99.1799 178.245 99.0197 178.225 98.8445C177.848 97.1215 177.011 95.5325 175.804 94.2461C175.002 93.1133 174.037 92.1044 172.942 91.2518C172.443 90.8674 171.865 90.5985 171.25 90.4644C170.635 90.3303 169.997 90.3344 169.384 90.4765C168.866 90.6632 168.393 90.9575 167.996 91.3399C167.6 91.7224 167.289 92.1843 167.084 92.6955C166.641 93.8026 166.454 94.995 166.535 96.1844C166.663 98.7167 167.41 101.179 168.711 103.356C170.012 105.532 171.828 107.357 173.998 108.67C174.096 108.65 174.197 108.654 174.292 108.682C174.388 108.71 174.475 108.761 174.547 108.83L175.002 109.231C175.107 109.321 175.182 109.441 175.216 109.575C175.25 109.71 175.241 109.851 175.191 109.98C175.141 110.109 175.052 110.22 174.937 110.296C174.822 110.373 174.685 110.412 174.547 110.407L174.56 110.341Z" fill="#231F20"/>
<path d="M181.729 122.117C181.729 122.117 175.189 120.781 171.845 116.637C171.845 116.637 173.022 126.529 183.053 128.935L181.729 122.117Z" fill="#231F20"/>
<path d="M183.053 129.603H182.893C172.527 127.13 171.19 116.85 171.176 116.743C171.159 116.6 171.189 116.454 171.261 116.329C171.333 116.204 171.444 116.105 171.578 116.048C171.709 115.99 171.857 115.976 171.997 116.01C172.137 116.044 172.263 116.123 172.353 116.235C175.523 120.099 181.796 121.475 181.863 121.489C181.993 121.516 182.112 121.581 182.205 121.677C182.298 121.772 182.361 121.893 182.384 122.024L183.722 128.828C183.742 128.925 183.74 129.025 183.716 129.121C183.692 129.217 183.647 129.307 183.585 129.384C183.522 129.461 183.443 129.523 183.353 129.565C183.264 129.608 183.166 129.63 183.067 129.63L183.053 129.603ZM173.022 118.748C173.673 120.925 174.851 122.908 176.451 124.522C178.051 126.135 180.025 127.329 182.197 127.999L181.154 122.652C178.205 121.934 175.436 120.614 173.022 118.775V118.748Z" fill="#231F20"/>
<path d="M189.128 87.9355C189.242 86.4633 188.862 85.2335 188.281 85.1885C187.699 85.1436 187.135 86.3005 187.021 87.7727C186.907 89.2448 187.286 90.4747 187.868 90.5196C188.45 90.5646 189.014 89.4076 189.128 87.9355Z" fill="#231F20"/>
<path d="M118.465 177.378L104.743 201.44L69.0046 164.786C69.0046 164.786 71.8936 149.213 68.0416 150.456C65.6079 151.323 63.4918 152.902 61.9694 154.988C61.9694 154.988 58.7995 133.6 50.4535 140.631C42.1075 147.663 45.9461 160.014 52.2725 171.884C56.9671 180.694 98.6838 244.951 110.253 242.371C121.823 239.791 149.295 181.429 149.295 181.429L118.465 177.378Z" fill="white"/>
<path d="M109.611 243.093C96.4635 243.093 55.8704 180.052 51.684 172.245C46.4143 162.34 40.5025 148.184 50.0255 140.163C51.791 138.666 53.503 138.212 55.1214 138.827C59.5084 140.484 61.6751 149.801 62.3706 153.531C63.8537 151.878 65.7377 150.635 67.841 149.922C68.1248 149.811 68.434 149.781 68.7339 149.835C69.0338 149.889 69.3128 150.026 69.5396 150.229C71.7733 152.194 70.2084 161.939 69.7269 164.666L104.596 200.317L117.89 177.018C117.956 176.902 118.054 176.808 118.174 176.748C118.293 176.689 118.427 176.666 118.559 176.683L149.322 180.694C149.426 180.706 149.526 180.745 149.612 180.805C149.699 180.866 149.769 180.947 149.816 181.041C149.862 181.135 149.886 181.238 149.886 181.342C149.886 181.446 149.862 181.549 149.816 181.643C148.679 184.035 122.05 240.339 110.307 242.946C110.08 243.017 109.847 243.066 109.611 243.093ZM53.6903 139.856C52.6249 139.954 51.6294 140.428 50.8815 141.193C44.194 146.86 44.8226 156.539 52.8744 171.63C57.9703 181.202 99.3659 244.149 110.106 241.783C120.485 239.47 144.881 189.142 148.305 182.03L118.88 178.154L105.371 201.828C105.32 201.917 105.248 201.994 105.162 202.052C105.077 202.11 104.979 202.147 104.876 202.162C104.773 202.176 104.669 202.166 104.571 202.131C104.473 202.096 104.385 202.038 104.315 201.961L68.5766 165.308C68.5037 165.23 68.45 165.136 68.4198 165.034C68.3896 164.932 68.3838 164.824 68.4028 164.719C69.3123 159.787 70.0211 152.341 68.7104 151.192C68.7104 151.192 68.5633 151.071 68.2958 151.192C66.0094 152.019 64.0181 153.502 62.5713 155.456C62.4933 155.566 62.3847 155.652 62.2587 155.702C62.1328 155.752 61.9951 155.764 61.8624 155.736C61.7327 155.706 61.615 155.638 61.5245 155.54C61.4339 155.442 61.3746 155.32 61.3541 155.188C60.8058 151.486 58.5588 141.58 54.6666 140.137C54.3621 139.982 54.0307 139.886 53.6903 139.856Z" fill="#231F20"/>
<path d="M223.004 166.591C223.004 166.591 250.664 159.426 261.03 153.344C272.398 146.66 293.812 104.446 300.767 93.952C304.542 88.1573 307.347 81.7867 309.072 75.0905C309.875 72.0962 310.25 69.9307 308.752 67.07C308.444 66.4685 303.535 61.0948 303.308 61.723C304.645 57.9668 305.983 54.3976 307.401 50.6815C307.775 49.6522 308.056 48.3555 307.267 47.607C306.921 47.3371 306.495 47.1904 306.056 47.1904C305.618 47.1904 305.192 47.3371 304.846 47.607C304.148 48.1412 303.581 48.8269 303.188 49.6121L291.819 69.3158C291.91 66.8828 291.42 64.4632 290.388 62.2577C290.225 61.815 289.931 61.4326 289.545 61.1616C288.301 60.4665 287.097 62.1642 286.709 63.5276C284.69 70.6391 286.148 79.2077 281.788 85.5038C278.471 90.2893 249.005 125.606 249.005 125.606L223.004 132.29" fill="white"/>
<path d="M223.004 167.259C222.827 167.282 222.648 167.234 222.506 167.125C222.364 167.016 222.272 166.855 222.249 166.678C222.226 166.5 222.274 166.321 222.383 166.18C222.492 166.038 222.653 165.945 222.83 165.922C223.111 165.856 250.53 158.731 260.695 152.755C268.921 147.916 282.898 123.441 292.153 107.239C295.497 101.398 298.372 96.3446 300.178 93.5776C303.908 87.8247 306.677 81.5041 308.377 74.8631C309.139 72.0559 309.541 70.0107 308.109 67.2704C306.679 65.4779 305.085 63.8221 303.348 62.3244C303.251 62.3442 303.151 62.3442 303.054 62.3244C302.887 62.2638 302.75 62.1405 302.673 61.9808C302.595 61.821 302.583 61.6373 302.639 61.4689C303.455 59.0627 304.364 56.6967 305.234 54.3975C305.742 53.0607 306.237 51.724 306.732 50.3872C307.227 49.0505 307.187 48.4222 306.732 48.0345C306.502 47.8641 306.223 47.7722 305.936 47.7722C305.649 47.7722 305.371 47.8641 305.14 48.0345C304.541 48.5303 304.057 49.1507 303.722 49.8525L292.314 69.5963C292.241 69.7268 292.125 69.8284 291.987 69.8843C291.848 69.9403 291.694 69.9471 291.551 69.9038C291.436 69.8535 291.337 69.7716 291.266 69.6675C291.195 69.5634 291.155 69.4414 291.15 69.3156C291.228 67.0142 290.77 64.7263 289.812 62.6318C289.699 62.3198 289.5 62.0463 289.237 61.8432C289.164 61.8009 289.081 61.7787 288.997 61.7787C288.912 61.7787 288.829 61.8009 288.756 61.8432C288.072 62.3122 287.594 63.0248 287.418 63.8349C286.73 66.553 286.283 69.3263 286.081 72.1227C285.639 76.935 285.171 81.9211 282.336 85.9982C279.046 90.7704 250.717 124.657 249.514 126.101C249.424 126.208 249.302 126.283 249.166 126.315L223.165 132.998C222.993 133.039 222.812 133.012 222.66 132.922C222.508 132.833 222.396 132.687 222.349 132.517C222.327 132.432 222.322 132.343 222.334 132.256C222.346 132.169 222.376 132.085 222.42 132.009C222.465 131.934 222.524 131.867 222.595 131.815C222.665 131.762 222.745 131.723 222.83 131.702L248.631 125.018C250.811 122.344 278.056 89.7277 281.239 85.1828C283.914 81.3864 284.315 76.5741 284.757 71.9356C284.943 69.0538 285.391 66.1948 286.094 63.3938C286.235 62.794 286.5 62.23 286.87 61.7376C287.241 61.2452 287.71 60.835 288.248 60.5331C288.511 60.4213 288.797 60.3727 289.083 60.3913C289.369 60.4098 289.646 60.4951 289.893 60.6401C290.406 60.9475 290.802 61.4182 291.016 61.9768C291.754 63.5554 292.229 65.2443 292.421 66.9763L302.639 49.2644C303.086 48.3806 303.732 47.6121 304.525 47.0186C305.002 46.6701 305.58 46.489 306.17 46.5035C306.761 46.518 307.33 46.7273 307.788 47.0988C308.618 47.8875 308.725 49.1708 308.083 50.8952C307.588 52.2319 307.08 53.5687 306.571 54.9054C305.782 56.9908 304.966 59.1429 304.204 61.3218C306.132 62.9003 307.874 64.6943 309.393 66.6688C311.039 69.8235 310.584 72.203 309.768 75.224C308.021 81.9848 305.189 88.4178 301.382 94.2727C299.563 97.013 296.701 102.039 293.357 107.854C283.473 125.152 269.951 148.852 261.404 153.865C251.092 159.934 224.342 166.885 223.205 167.232L223.004 167.259Z" fill="#231F20"/>
<path d="M229.625 281.859L220.971 242.531L134.662 265.671C134.662 265.671 134.836 272.127 135.077 281.832L229.625 281.859Z" fill="#231F20"/>
<path d="M247.012 122.786C247.012 122.786 148.813 120.714 136.348 138.332C126.647 152.953 118.523 168.559 112.112 184.891L129.767 201.386C129.689 224.715 130.877 248.031 133.325 271.231C163.753 276.578 226.789 252.25 226.254 252.009L218.229 170.467L255.813 158.864L247.012 122.786Z" fill="#2128CF"/>
<path d="M128.617 195.264C128.529 195.261 128.443 195.24 128.363 195.203C128.283 195.166 128.211 195.114 128.152 195.05C128.092 194.985 128.046 194.909 128.016 194.827C127.985 194.745 127.971 194.657 127.975 194.569C127.975 193.099 129.139 158.303 133.914 146.139C133.944 146.056 133.992 145.98 134.053 145.916C134.114 145.852 134.187 145.801 134.268 145.766C134.35 145.731 134.437 145.713 134.525 145.713C134.614 145.712 134.701 145.73 134.783 145.764C134.865 145.794 134.941 145.84 135.005 145.9C135.069 145.959 135.12 146.031 135.155 146.111C135.19 146.192 135.208 146.278 135.209 146.365C135.209 146.453 135.192 146.539 135.157 146.62C130.476 158.57 129.326 194.262 129.313 194.609C129.306 194.788 129.229 194.956 129.099 195.079C128.969 195.201 128.796 195.268 128.617 195.264Z" fill="#231F20"/>
<path d="M204.788 174.638C204.642 174.64 204.501 174.594 204.384 174.507C204.268 174.42 204.184 174.297 204.146 174.157C204.1 173.985 204.124 173.802 204.211 173.647C204.299 173.492 204.443 173.378 204.614 173.328L232.367 165.441C232.544 165.392 232.734 165.414 232.895 165.505C233.055 165.595 233.173 165.745 233.223 165.922C233.273 166.1 233.25 166.289 233.159 166.45C233.069 166.61 232.919 166.728 232.741 166.778L204.975 174.665C204.911 174.669 204.848 174.66 204.788 174.638Z" fill="#231F20"/>
<path d="M313.286 268.277H264.748C264.075 268.279 263.408 268.148 262.785 267.891C262.163 267.635 261.598 267.258 261.122 266.782C260.646 266.306 260.268 265.741 260.011 265.119C259.755 264.497 259.623 263.83 259.625 263.158V209.567C259.625 208.895 259.758 208.229 260.015 207.608C260.273 206.987 260.65 206.423 261.126 205.947C261.601 205.472 262.166 205.095 262.787 204.837C263.409 204.58 264.075 204.448 264.748 204.448H307.548L318.355 214.981V263.104C318.362 263.777 318.236 264.444 317.985 265.068C317.734 265.691 317.363 266.26 316.892 266.74C316.422 267.221 315.861 267.604 315.242 267.867C314.623 268.131 313.958 268.27 313.286 268.277Z" fill="white"/>
<path d="M313.286 268.946H264.748C263.212 268.946 261.739 268.336 260.653 267.25C259.567 266.165 258.956 264.693 258.956 263.158V209.567C258.96 208.033 259.571 206.563 260.657 205.478C261.742 204.394 263.213 203.783 264.748 203.779H307.548C307.634 203.777 307.72 203.793 307.801 203.825C307.881 203.857 307.954 203.905 308.016 203.966L318.836 214.513C318.961 214.638 319.033 214.805 319.037 214.981V263.104C319.048 264.64 318.448 266.118 317.37 267.213C316.292 268.309 314.823 268.932 313.286 268.946ZM264.748 205.116C263.568 205.119 262.437 205.59 261.602 206.424C260.768 207.258 260.297 208.388 260.294 209.567V263.144C260.294 263.729 260.409 264.308 260.633 264.848C260.857 265.388 261.185 265.878 261.598 266.292C262.012 266.705 262.503 267.033 263.043 267.257C263.584 267.48 264.163 267.596 264.748 267.596H313.286C314.466 267.592 315.597 267.122 316.431 266.288C317.266 265.454 317.736 264.324 317.74 263.144V215.262L307.32 205.116H264.748Z" fill="#231F20"/>
<path d="M248.551 10.4988C249.792 10.4988 250.798 9.49334 250.798 8.25306C250.798 7.01277 249.792 6.00732 248.551 6.00732C247.31 6.00732 246.304 7.01277 246.304 8.25306C246.304 9.49334 247.31 10.4988 248.551 10.4988Z" fill="#2128CF"/>
<path d="M256.348 10.4988C257.589 10.4988 258.595 9.49334 258.595 8.25306C258.595 7.01277 257.589 6.00732 256.348 6.00732C255.107 6.00732 254.101 7.01277 254.101 8.25306C254.101 9.49334 255.107 10.4988 256.348 10.4988Z" fill="#9A9EE8"/>
<path d="M264.146 10.4988C265.387 10.4988 266.393 9.49334 266.393 8.25306C266.393 7.01277 265.387 6.00732 264.146 6.00732C262.905 6.00732 261.899 7.01277 261.899 8.25306C261.899 9.49334 262.905 10.4988 264.146 10.4988Z" fill="#9A9EE8"/>
<path d="M307.2 43.5032C307.047 43.502 306.899 43.4449 306.785 43.3428C306.657 43.2338 306.577 43.0789 306.562 42.9114C306.547 42.7439 306.598 42.5772 306.705 42.4471L312.483 35.603C312.544 35.5312 312.62 35.4736 312.705 35.4343C312.791 35.3951 312.884 35.3751 312.978 35.3757H327.436C327.614 35.3757 327.784 35.4462 327.909 35.5715C328.035 35.6969 328.105 35.8669 328.105 36.0441C328.105 36.2214 328.035 36.3914 327.909 36.5167C327.784 36.6421 327.614 36.7125 327.436 36.7125H313.245L307.655 43.3962C307.522 43.4877 307.36 43.5259 307.2 43.5032Z" fill="#9A9EE8"/>
<path d="M307.601 204.448V215.302L318.408 214.981L307.601 204.448Z" fill="#2128CF"/>
<path d="M307.588 215.97C307.418 215.969 307.255 215.902 307.133 215.783C307.065 215.723 307.011 215.649 306.974 215.566C306.937 215.483 306.919 215.393 306.919 215.302V204.448C306.921 204.316 306.962 204.188 307.035 204.079C307.109 203.97 307.213 203.884 307.334 203.833C307.454 203.78 307.587 203.765 307.715 203.789C307.844 203.813 307.963 203.875 308.056 203.966L318.876 214.513C318.967 214.606 319.029 214.723 319.055 214.85C319.08 214.977 319.068 215.109 319.02 215.23C318.972 215.35 318.89 215.454 318.783 215.529C318.677 215.603 318.551 215.645 318.422 215.65L307.615 215.97H307.588ZM308.257 206.038V214.62L316.803 214.366L308.257 206.038Z" fill="#231F20"/>
<path d="M73.6725 232.68H59.9364C57.9198 232.68 56.285 234.314 56.285 236.329V250.057C56.285 252.073 57.9198 253.707 59.9364 253.707H73.6725C75.6891 253.707 77.3239 252.073 77.3239 250.057V236.329C77.3239 234.314 75.6891 232.68 73.6725 232.68Z" fill="#2128CF"/>
<path d="M70.0479 225.943H55.857C53.966 225.943 52.433 227.475 52.433 229.365V243.547C52.433 245.437 53.966 246.97 55.857 246.97H70.0479C71.9389 246.97 73.4719 245.437 73.4719 243.547V229.365C73.4719 227.475 71.9389 225.943 70.0479 225.943Z" fill="white"/>
<path d="M70.0479 247.638H55.857C55.3173 247.642 54.7822 247.538 54.2825 247.334C53.7829 247.13 53.3286 246.83 52.9457 246.449C52.5628 246.069 52.2589 245.617 52.0516 245.119C51.8442 244.621 51.7375 244.087 51.7375 243.548V229.365C51.7375 228.28 52.1687 227.239 52.9362 226.472C53.7038 225.705 54.7448 225.274 55.8302 225.274H70.0211C70.5586 225.274 71.0908 225.38 71.5873 225.586C72.0839 225.791 72.5351 226.092 72.9151 226.472C73.2952 226.852 73.5966 227.303 73.8023 227.799C74.008 228.296 74.1139 228.827 74.1139 229.365V243.548C74.1139 244.628 73.6864 245.664 72.9246 246.431C72.1628 247.197 71.1287 247.631 70.0479 247.638ZM55.857 226.611C55.4929 226.607 55.1318 226.676 54.7944 226.813C54.457 226.95 54.1501 227.152 53.8914 227.408C53.6327 227.664 53.4274 227.969 53.2872 228.305C53.1471 228.64 53.075 229.001 53.075 229.365V243.548C53.075 244.278 53.3653 244.978 53.882 245.495C54.3987 246.011 55.0995 246.301 55.8302 246.301H70.0211C70.7519 246.301 71.4527 246.011 71.9694 245.495C72.4861 244.978 72.7764 244.278 72.7764 243.548V229.365C72.7764 228.634 72.4861 227.934 71.9694 227.417C71.4527 226.901 70.7519 226.611 70.0211 226.611H55.857Z" fill="#231F20"/>
<path d="M286.121 256.313V253.159C284.971 252.838 283.861 252.611 282.777 252.236C280.687 251.583 278.878 250.246 277.641 248.44C276.624 246.846 276.107 244.983 276.157 243.093H282.322C282.363 244.165 282.756 245.194 283.44 246.02C284.124 246.846 285.062 247.424 286.108 247.665V239.297C284.864 238.936 283.633 238.602 282.403 238.214C281.062 237.828 279.833 237.126 278.818 236.169C277.766 235.116 277.069 233.76 276.825 232.292C276.468 230.508 276.602 228.659 277.213 226.945C277.667 225.711 278.388 224.591 279.324 223.667C280.261 222.743 281.389 222.036 282.63 221.598C283.654 221.276 284.694 221.008 285.746 220.796L286.121 220.716V216.358H291.899V216.772C291.899 217.962 291.899 219.165 291.899 220.355C291.899 220.649 291.993 220.743 292.274 220.809C294.238 221.19 296.077 222.053 297.624 223.323C299.27 224.666 300.36 226.571 300.686 228.669C300.793 229.244 300.834 229.832 300.914 230.434H294.641C294.631 229.579 294.372 228.745 293.898 228.033C293.423 227.321 292.752 226.762 291.966 226.424V234.244L292.648 234.404C294.344 234.732 295.996 235.257 297.57 235.968C298.752 236.481 299.773 237.305 300.522 238.353C301.271 239.401 301.721 240.633 301.823 241.917C302.193 244.309 301.612 246.751 300.205 248.721C299.047 250.323 297.421 251.528 295.55 252.17C294.387 252.571 293.183 252.825 291.939 253.172V256.233L286.121 256.313ZM291.912 240.42V247.691C292.852 247.554 293.736 247.161 294.467 246.555C294.844 246.248 295.146 245.859 295.348 245.417C295.55 244.974 295.648 244.492 295.634 244.006C295.62 243.52 295.494 243.044 295.266 242.614C295.038 242.185 294.714 241.813 294.32 241.529C293.544 241.104 292.74 240.733 291.912 240.42ZM286.108 232.974V225.943C285.351 226.274 284.614 226.648 283.901 227.065C283.491 227.357 283.16 227.746 282.938 228.197C282.716 228.648 282.61 229.147 282.628 229.649C282.647 230.151 282.79 230.641 283.045 231.074C283.299 231.508 283.658 231.871 284.088 232.132C284.717 232.466 285.399 232.693 286.108 232.987V232.974Z" fill="#2128CF"/>
<path d="M92.3975 29.6277H33.494V64.704H92.3975V29.6277Z" fill="#9A9EE8"/>
</svg>
