<svg width="52" height="35" viewBox="0 0 52 35" fill="none" xmlns="http://www.w3.org/2000/svg">
<path d="M1.64494 10.3988C-0.361182 8.6457 -0.560011 5.60547 1.20084 3.60822C2.9617 1.61097 6.01544 1.41303 8.02156 3.16609L34.0219 25.8867C36.0281 27.6398 36.2269 30.68 34.466 32.6773C32.7052 34.6745 29.6514 34.8725 27.6453 33.1194L1.64494 10.3988Z" fill="white"/>
<path d="M31.0961 19.7356C29.09 17.9825 28.8912 14.9423 30.652 12.9451C32.4129 10.9478 35.4666 10.7499 37.4727 12.5029L42.1885 16.6238C44.1946 18.3769 44.3934 21.4171 42.6326 23.4144C40.8717 25.4116 37.818 25.6096 35.8119 23.8565L31.0961 19.7356Z" fill="white"/>
<path d="M43.9784 14.5936C41.9723 12.8405 41.7735 9.80031 43.5343 7.80306C45.2952 5.80581 48.3489 5.60786 50.3551 7.36093C52.3612 9.114 52.56 12.1542 50.7992 14.1515C49.0383 16.1487 45.9846 16.3467 43.9784 14.5936Z" fill="white"/>
<path d="M23.4999 11.0757C22.1625 9.90704 22.0299 7.88022 23.2038 6.54872C24.3777 5.21722 26.4136 5.08525 27.751 6.25396C29.0884 7.42268 29.2209 9.4495 28.047 10.781C26.8731 12.1125 24.8373 12.2445 23.4999 11.0757Z" fill="white"/>
<path d="M36.3822 5.93375C35.0448 4.76504 34.9122 2.73822 36.0861 1.40672C37.26 0.0752181 39.2958 -0.0567478 40.6333 1.11196C41.9707 2.28067 42.1032 4.30749 40.9293 5.63899C39.7554 6.97049 37.7196 7.10246 36.3822 5.93375Z" fill="white"/>
</svg>
